G04 #@! TF.GenerationSoftware,KiCad,Pcbnew,6.0.2+dfsg-1*
G04 #@! TF.CreationDate,2023-02-12T19:45:13+01:00*
G04 #@! TF.ProjectId,RBCX,52424358-2e6b-4696-9361-645f70636258,rev?*
G04 #@! TF.SameCoordinates,Original*
G04 #@! TF.FileFunction,Legend,Bot*
G04 #@! TF.FilePolarity,Positive*
%FSLAX46Y46*%
G04 Gerber Fmt 4.6, Leading zero omitted, Abs format (unit mm)*
G04 Created by KiCad (PCBNEW 6.0.2+dfsg-1) date 2023-02-12 19:45:13*
%MOMM*%
%LPD*%
G01*
G04 APERTURE LIST*
%ADD10C,0.150000*%
%ADD11C,0.065024*%
%ADD12C,0.101600*%
%ADD13C,0.127000*%
%ADD14C,0.120000*%
%ADD15C,0.100000*%
%ADD16C,0.152400*%
%ADD17C,0.203200*%
G04 APERTURE END LIST*
D10*
X161205000Y-131805000D02*
X166680000Y-135810000D01*
X164115000Y-136305000D02*
X158240000Y-131795000D01*
X162535000Y-131790000D02*
X156410000Y-131790000D01*
X156410000Y-131790000D02*
X156410000Y-126690000D01*
X156410000Y-126690000D02*
X162535000Y-126690000D01*
X162535000Y-126690000D02*
X162535000Y-131790000D01*
X159865000Y-126695000D02*
X159870000Y-131780000D01*
X180329523Y-67892380D02*
X180329523Y-66892380D01*
X179996190Y-67606666D01*
X179662857Y-66892380D01*
X179662857Y-67892380D01*
X179234285Y-66987619D02*
X179186666Y-66940000D01*
X179091428Y-66892380D01*
X178853333Y-66892380D01*
X178758095Y-66940000D01*
X178710476Y-66987619D01*
X178662857Y-67082857D01*
X178662857Y-67178095D01*
X178710476Y-67320952D01*
X179281904Y-67892380D01*
X178662857Y-67892380D01*
X169815952Y-138186428D02*
X169054047Y-138186428D01*
X136005476Y-135981428D02*
X136053095Y-136024285D01*
X136195952Y-136067142D01*
X136291190Y-136067142D01*
X136434047Y-136024285D01*
X136529285Y-135938571D01*
X136576904Y-135852857D01*
X136624523Y-135681428D01*
X136624523Y-135552857D01*
X136576904Y-135381428D01*
X136529285Y-135295714D01*
X136434047Y-135210000D01*
X136291190Y-135167142D01*
X136195952Y-135167142D01*
X136053095Y-135210000D01*
X136005476Y-135252857D01*
X159607380Y-126995000D02*
X158607380Y-126995000D01*
X158797857Y-128182142D02*
X158845476Y-128229761D01*
X158988333Y-128277380D01*
X159083571Y-128277380D01*
X159226428Y-128229761D01*
X159321666Y-128134523D01*
X159369285Y-128039285D01*
X159416904Y-127848809D01*
X159416904Y-127705952D01*
X159369285Y-127515476D01*
X159321666Y-127420238D01*
X159226428Y-127325000D01*
X159083571Y-127277380D01*
X158988333Y-127277380D01*
X158845476Y-127325000D01*
X158797857Y-127372619D01*
X158607380Y-126995000D02*
X157655000Y-126995000D01*
X158416904Y-128229761D02*
X158274047Y-128277380D01*
X158035952Y-128277380D01*
X157940714Y-128229761D01*
X157893095Y-128182142D01*
X157845476Y-128086904D01*
X157845476Y-127991666D01*
X157893095Y-127896428D01*
X157940714Y-127848809D01*
X158035952Y-127801190D01*
X158226428Y-127753571D01*
X158321666Y-127705952D01*
X158369285Y-127658333D01*
X158416904Y-127563095D01*
X158416904Y-127467857D01*
X158369285Y-127372619D01*
X158321666Y-127325000D01*
X158226428Y-127277380D01*
X157988333Y-127277380D01*
X157845476Y-127325000D01*
X157655000Y-126995000D02*
X156702619Y-126995000D01*
X156893095Y-128277380D02*
X157464523Y-128277380D01*
X157178809Y-128277380D02*
X157178809Y-127277380D01*
X157274047Y-127420238D01*
X157369285Y-127515476D01*
X157464523Y-127563095D01*
X159607380Y-128605000D02*
X158607380Y-128605000D01*
X158797857Y-129792142D02*
X158845476Y-129839761D01*
X158988333Y-129887380D01*
X159083571Y-129887380D01*
X159226428Y-129839761D01*
X159321666Y-129744523D01*
X159369285Y-129649285D01*
X159416904Y-129458809D01*
X159416904Y-129315952D01*
X159369285Y-129125476D01*
X159321666Y-129030238D01*
X159226428Y-128935000D01*
X159083571Y-128887380D01*
X158988333Y-128887380D01*
X158845476Y-128935000D01*
X158797857Y-128982619D01*
X158607380Y-128605000D02*
X157655000Y-128605000D01*
X158416904Y-129839761D02*
X158274047Y-129887380D01*
X158035952Y-129887380D01*
X157940714Y-129839761D01*
X157893095Y-129792142D01*
X157845476Y-129696904D01*
X157845476Y-129601666D01*
X157893095Y-129506428D01*
X157940714Y-129458809D01*
X158035952Y-129411190D01*
X158226428Y-129363571D01*
X158321666Y-129315952D01*
X158369285Y-129268333D01*
X158416904Y-129173095D01*
X158416904Y-129077857D01*
X158369285Y-128982619D01*
X158321666Y-128935000D01*
X158226428Y-128887380D01*
X157988333Y-128887380D01*
X157845476Y-128935000D01*
X157655000Y-128605000D02*
X156702619Y-128605000D01*
X157464523Y-128982619D02*
X157416904Y-128935000D01*
X157321666Y-128887380D01*
X157083571Y-128887380D01*
X156988333Y-128935000D01*
X156940714Y-128982619D01*
X156893095Y-129077857D01*
X156893095Y-129173095D01*
X156940714Y-129315952D01*
X157512142Y-129887380D01*
X156893095Y-129887380D01*
X159607380Y-130215000D02*
X158607380Y-130215000D01*
X158797857Y-131402142D02*
X158845476Y-131449761D01*
X158988333Y-131497380D01*
X159083571Y-131497380D01*
X159226428Y-131449761D01*
X159321666Y-131354523D01*
X159369285Y-131259285D01*
X159416904Y-131068809D01*
X159416904Y-130925952D01*
X159369285Y-130735476D01*
X159321666Y-130640238D01*
X159226428Y-130545000D01*
X159083571Y-130497380D01*
X158988333Y-130497380D01*
X158845476Y-130545000D01*
X158797857Y-130592619D01*
X158607380Y-130215000D02*
X157655000Y-130215000D01*
X158416904Y-131449761D02*
X158274047Y-131497380D01*
X158035952Y-131497380D01*
X157940714Y-131449761D01*
X157893095Y-131402142D01*
X157845476Y-131306904D01*
X157845476Y-131211666D01*
X157893095Y-131116428D01*
X157940714Y-131068809D01*
X158035952Y-131021190D01*
X158226428Y-130973571D01*
X158321666Y-130925952D01*
X158369285Y-130878333D01*
X158416904Y-130783095D01*
X158416904Y-130687857D01*
X158369285Y-130592619D01*
X158321666Y-130545000D01*
X158226428Y-130497380D01*
X157988333Y-130497380D01*
X157845476Y-130545000D01*
X157655000Y-130215000D02*
X156702619Y-130215000D01*
X157512142Y-130497380D02*
X156893095Y-130497380D01*
X157226428Y-130878333D01*
X157083571Y-130878333D01*
X156988333Y-130925952D01*
X156940714Y-130973571D01*
X156893095Y-131068809D01*
X156893095Y-131306904D01*
X156940714Y-131402142D01*
X156988333Y-131449761D01*
X157083571Y-131497380D01*
X157369285Y-131497380D01*
X157464523Y-131449761D01*
X157512142Y-131402142D01*
X141233095Y-135210000D02*
X141328333Y-135167142D01*
X141471190Y-135167142D01*
X141614047Y-135210000D01*
X141709285Y-135295714D01*
X141756904Y-135381428D01*
X141804523Y-135552857D01*
X141804523Y-135681428D01*
X141756904Y-135852857D01*
X141709285Y-135938571D01*
X141614047Y-136024285D01*
X141471190Y-136067142D01*
X141375952Y-136067142D01*
X141233095Y-136024285D01*
X141185476Y-135981428D01*
X141185476Y-135681428D01*
X141375952Y-135681428D01*
X134851904Y-50829761D02*
X134709047Y-50877380D01*
X134470952Y-50877380D01*
X134375714Y-50829761D01*
X134328095Y-50782142D01*
X134280476Y-50686904D01*
X134280476Y-50591666D01*
X134328095Y-50496428D01*
X134375714Y-50448809D01*
X134470952Y-50401190D01*
X134661428Y-50353571D01*
X134756666Y-50305952D01*
X134804285Y-50258333D01*
X134851904Y-50163095D01*
X134851904Y-50067857D01*
X134804285Y-49972619D01*
X134756666Y-49925000D01*
X134661428Y-49877380D01*
X134423333Y-49877380D01*
X134280476Y-49925000D01*
X133899523Y-49972619D02*
X133851904Y-49925000D01*
X133756666Y-49877380D01*
X133518571Y-49877380D01*
X133423333Y-49925000D01*
X133375714Y-49972619D01*
X133328095Y-50067857D01*
X133328095Y-50163095D01*
X133375714Y-50305952D01*
X133947142Y-50877380D01*
X133328095Y-50877380D01*
X131625952Y-135601428D02*
X130864047Y-135601428D01*
X131245000Y-135982380D02*
X131245000Y-135220476D01*
X146851904Y-50829761D02*
X146709047Y-50877380D01*
X146470952Y-50877380D01*
X146375714Y-50829761D01*
X146328095Y-50782142D01*
X146280476Y-50686904D01*
X146280476Y-50591666D01*
X146328095Y-50496428D01*
X146375714Y-50448809D01*
X146470952Y-50401190D01*
X146661428Y-50353571D01*
X146756666Y-50305952D01*
X146804285Y-50258333D01*
X146851904Y-50163095D01*
X146851904Y-50067857D01*
X146804285Y-49972619D01*
X146756666Y-49925000D01*
X146661428Y-49877380D01*
X146423333Y-49877380D01*
X146280476Y-49925000D01*
X145947142Y-49877380D02*
X145328095Y-49877380D01*
X145661428Y-50258333D01*
X145518571Y-50258333D01*
X145423333Y-50305952D01*
X145375714Y-50353571D01*
X145328095Y-50448809D01*
X145328095Y-50686904D01*
X145375714Y-50782142D01*
X145423333Y-50829761D01*
X145518571Y-50877380D01*
X145804285Y-50877380D01*
X145899523Y-50829761D01*
X145947142Y-50782142D01*
X195722380Y-126670476D02*
X194722380Y-126670476D01*
X195436666Y-127003809D01*
X194722380Y-127337142D01*
X195722380Y-127337142D01*
X195055714Y-128241904D02*
X195722380Y-128241904D01*
X194674761Y-128003809D02*
X195389047Y-127765714D01*
X195389047Y-128384761D01*
X158851904Y-50829761D02*
X158709047Y-50877380D01*
X158470952Y-50877380D01*
X158375714Y-50829761D01*
X158328095Y-50782142D01*
X158280476Y-50686904D01*
X158280476Y-50591666D01*
X158328095Y-50496428D01*
X158375714Y-50448809D01*
X158470952Y-50401190D01*
X158661428Y-50353571D01*
X158756666Y-50305952D01*
X158804285Y-50258333D01*
X158851904Y-50163095D01*
X158851904Y-50067857D01*
X158804285Y-49972619D01*
X158756666Y-49925000D01*
X158661428Y-49877380D01*
X158423333Y-49877380D01*
X158280476Y-49925000D01*
X157423333Y-50210714D02*
X157423333Y-50877380D01*
X157661428Y-49829761D02*
X157899523Y-50544047D01*
X157280476Y-50544047D01*
X116300714Y-135167142D02*
X115729285Y-135167142D01*
X116015000Y-136067142D02*
X116015000Y-135167142D01*
X162114761Y-135964285D02*
X162162380Y-136107142D01*
X162162380Y-136345238D01*
X162114761Y-136440476D01*
X162067142Y-136488095D01*
X161971904Y-136535714D01*
X161876666Y-136535714D01*
X161781428Y-136488095D01*
X161733809Y-136440476D01*
X161686190Y-136345238D01*
X161638571Y-136154761D01*
X161590952Y-136059523D01*
X161543333Y-136011904D01*
X161448095Y-135964285D01*
X161352857Y-135964285D01*
X161257619Y-136011904D01*
X161210000Y-136059523D01*
X161162380Y-136154761D01*
X161162380Y-136392857D01*
X161210000Y-136535714D01*
X162067142Y-137535714D02*
X162114761Y-137488095D01*
X162162380Y-137345238D01*
X162162380Y-137250000D01*
X162114761Y-137107142D01*
X162019523Y-137011904D01*
X161924285Y-136964285D01*
X161733809Y-136916666D01*
X161590952Y-136916666D01*
X161400476Y-136964285D01*
X161305238Y-137011904D01*
X161210000Y-137107142D01*
X161162380Y-137250000D01*
X161162380Y-137345238D01*
X161210000Y-137488095D01*
X161257619Y-137535714D01*
X162162380Y-137964285D02*
X161162380Y-137964285D01*
X162162380Y-138535714D02*
X161590952Y-138107142D01*
X161162380Y-138535714D02*
X161733809Y-137964285D01*
X134160952Y-135601428D02*
X133399047Y-135601428D01*
X166738333Y-138523095D02*
X166738333Y-138046904D01*
X166452619Y-138618333D02*
X167452619Y-138285000D01*
X166452619Y-137951666D01*
X167452619Y-137618333D02*
X166643095Y-137618333D01*
X166547857Y-137570714D01*
X166500238Y-137523095D01*
X166452619Y-137427857D01*
X166452619Y-137237380D01*
X166500238Y-137142142D01*
X166547857Y-137094523D01*
X166643095Y-137046904D01*
X167452619Y-137046904D01*
X167452619Y-136665952D02*
X166452619Y-135999285D01*
X167452619Y-135999285D02*
X166452619Y-136665952D01*
X130234285Y-84414761D02*
X130091428Y-84462380D01*
X129853333Y-84462380D01*
X129758095Y-84414761D01*
X129710476Y-84367142D01*
X129662857Y-84271904D01*
X129662857Y-84176666D01*
X129710476Y-84081428D01*
X129758095Y-84033809D01*
X129853333Y-83986190D01*
X130043809Y-83938571D01*
X130139047Y-83890952D01*
X130186666Y-83843333D01*
X130234285Y-83748095D01*
X130234285Y-83652857D01*
X130186666Y-83557619D01*
X130139047Y-83510000D01*
X130043809Y-83462380D01*
X129805714Y-83462380D01*
X129662857Y-83510000D01*
X128662857Y-84367142D02*
X128710476Y-84414761D01*
X128853333Y-84462380D01*
X128948571Y-84462380D01*
X129091428Y-84414761D01*
X129186666Y-84319523D01*
X129234285Y-84224285D01*
X129281904Y-84033809D01*
X129281904Y-83890952D01*
X129234285Y-83700476D01*
X129186666Y-83605238D01*
X129091428Y-83510000D01*
X128948571Y-83462380D01*
X128853333Y-83462380D01*
X128710476Y-83510000D01*
X128662857Y-83557619D01*
X128281904Y-84176666D02*
X127805714Y-84176666D01*
X128377142Y-84462380D02*
X128043809Y-83462380D01*
X127710476Y-84462380D01*
X172345952Y-138176428D02*
X171584047Y-138176428D01*
X171965000Y-138557380D02*
X171965000Y-137795476D01*
X134667380Y-101416904D02*
X134667380Y-102035952D01*
X135048333Y-101702619D01*
X135048333Y-101845476D01*
X135095952Y-101940714D01*
X135143571Y-101988333D01*
X135238809Y-102035952D01*
X135476904Y-102035952D01*
X135572142Y-101988333D01*
X135619761Y-101940714D01*
X135667380Y-101845476D01*
X135667380Y-101559761D01*
X135619761Y-101464523D01*
X135572142Y-101416904D01*
X134667380Y-102321666D02*
X135667380Y-102655000D01*
X134667380Y-102988333D01*
X134667380Y-103226428D02*
X134667380Y-103845476D01*
X135048333Y-103512142D01*
X135048333Y-103655000D01*
X135095952Y-103750238D01*
X135143571Y-103797857D01*
X135238809Y-103845476D01*
X135476904Y-103845476D01*
X135572142Y-103797857D01*
X135619761Y-103750238D01*
X135667380Y-103655000D01*
X135667380Y-103369285D01*
X135619761Y-103274047D01*
X135572142Y-103226428D01*
X146970952Y-135601428D02*
X146209047Y-135601428D01*
X146590000Y-135982380D02*
X146590000Y-135220476D01*
X113855952Y-135666428D02*
X113094047Y-135666428D01*
X111310952Y-135656428D02*
X110549047Y-135656428D01*
X110930000Y-136037380D02*
X110930000Y-135275476D01*
X159637380Y-135368571D02*
X158637380Y-135368571D01*
X159351666Y-135701904D01*
X158637380Y-136035238D01*
X159637380Y-136035238D01*
X159637380Y-136511428D02*
X158637380Y-136511428D01*
X159589761Y-136940000D02*
X159637380Y-137082857D01*
X159637380Y-137320952D01*
X159589761Y-137416190D01*
X159542142Y-137463809D01*
X159446904Y-137511428D01*
X159351666Y-137511428D01*
X159256428Y-137463809D01*
X159208809Y-137416190D01*
X159161190Y-137320952D01*
X159113571Y-137130476D01*
X159065952Y-137035238D01*
X159018333Y-136987619D01*
X158923095Y-136940000D01*
X158827857Y-136940000D01*
X158732619Y-136987619D01*
X158685000Y-137035238D01*
X158637380Y-137130476D01*
X158637380Y-137368571D01*
X158685000Y-137511428D01*
X158637380Y-138130476D02*
X158637380Y-138320952D01*
X158685000Y-138416190D01*
X158780238Y-138511428D01*
X158970714Y-138559047D01*
X159304047Y-138559047D01*
X159494523Y-138511428D01*
X159589761Y-138416190D01*
X159637380Y-138320952D01*
X159637380Y-138130476D01*
X159589761Y-138035238D01*
X159494523Y-137940000D01*
X159304047Y-137892380D01*
X158970714Y-137892380D01*
X158780238Y-137940000D01*
X158685000Y-138035238D01*
X158637380Y-138130476D01*
X153729047Y-138193571D02*
X154490952Y-138193571D01*
X118255476Y-136067142D02*
X118588809Y-135638571D01*
X118826904Y-136067142D02*
X118826904Y-135167142D01*
X118445952Y-135167142D01*
X118350714Y-135210000D01*
X118303095Y-135252857D01*
X118255476Y-135338571D01*
X118255476Y-135467142D01*
X118303095Y-135552857D01*
X118350714Y-135595714D01*
X118445952Y-135638571D01*
X118826904Y-135638571D01*
X144440952Y-135611428D02*
X143679047Y-135611428D01*
X180374523Y-121697380D02*
X180374523Y-120697380D01*
X180041190Y-121411666D01*
X179707857Y-120697380D01*
X179707857Y-121697380D01*
X179326904Y-120697380D02*
X178707857Y-120697380D01*
X179041190Y-121078333D01*
X178898333Y-121078333D01*
X178803095Y-121125952D01*
X178755476Y-121173571D01*
X178707857Y-121268809D01*
X178707857Y-121506904D01*
X178755476Y-121602142D01*
X178803095Y-121649761D01*
X178898333Y-121697380D01*
X179184047Y-121697380D01*
X179279285Y-121649761D01*
X179326904Y-121602142D01*
X162145000Y-128252380D02*
X162145000Y-127252380D01*
X161478333Y-127252380D02*
X161287857Y-127252380D01*
X161192619Y-127300000D01*
X161097380Y-127395238D01*
X161049761Y-127585714D01*
X161049761Y-127919047D01*
X161097380Y-128109523D01*
X161192619Y-128204761D01*
X161287857Y-128252380D01*
X161478333Y-128252380D01*
X161573571Y-128204761D01*
X161668809Y-128109523D01*
X161716428Y-127919047D01*
X161716428Y-127585714D01*
X161668809Y-127395238D01*
X161573571Y-127300000D01*
X161478333Y-127252380D01*
X160097380Y-128252380D02*
X160668809Y-128252380D01*
X160383095Y-128252380D02*
X160383095Y-127252380D01*
X160478333Y-127395238D01*
X160573571Y-127490476D01*
X160668809Y-127538095D01*
X162145000Y-129862380D02*
X162145000Y-128862380D01*
X161668809Y-129862380D02*
X161668809Y-128862380D01*
X161097380Y-129862380D01*
X161097380Y-128862380D01*
X160097380Y-129862380D02*
X160668809Y-129862380D01*
X160383095Y-129862380D02*
X160383095Y-128862380D01*
X160478333Y-129005238D01*
X160573571Y-129100476D01*
X160668809Y-129148095D01*
X162145000Y-131472380D02*
X162145000Y-130472380D01*
X161668809Y-131472380D02*
X161668809Y-130472380D01*
X161097380Y-131472380D01*
X161097380Y-130472380D01*
X160668809Y-130567619D02*
X160621190Y-130520000D01*
X160525952Y-130472380D01*
X160287857Y-130472380D01*
X160192619Y-130520000D01*
X160145000Y-130567619D01*
X160097380Y-130662857D01*
X160097380Y-130758095D01*
X160145000Y-130900952D01*
X160716428Y-131472380D01*
X160097380Y-131472380D01*
X122851904Y-50829761D02*
X122709047Y-50877380D01*
X122470952Y-50877380D01*
X122375714Y-50829761D01*
X122328095Y-50782142D01*
X122280476Y-50686904D01*
X122280476Y-50591666D01*
X122328095Y-50496428D01*
X122375714Y-50448809D01*
X122470952Y-50401190D01*
X122661428Y-50353571D01*
X122756666Y-50305952D01*
X122804285Y-50258333D01*
X122851904Y-50163095D01*
X122851904Y-50067857D01*
X122804285Y-49972619D01*
X122756666Y-49925000D01*
X122661428Y-49877380D01*
X122423333Y-49877380D01*
X122280476Y-49925000D01*
X121328095Y-50877380D02*
X121899523Y-50877380D01*
X121613809Y-50877380D02*
X121613809Y-49877380D01*
X121709047Y-50020238D01*
X121804285Y-50115476D01*
X121899523Y-50163095D01*
X130128095Y-88552380D02*
X129509047Y-88552380D01*
X129842380Y-88933333D01*
X129699523Y-88933333D01*
X129604285Y-88980952D01*
X129556666Y-89028571D01*
X129509047Y-89123809D01*
X129509047Y-89361904D01*
X129556666Y-89457142D01*
X129604285Y-89504761D01*
X129699523Y-89552380D01*
X129985238Y-89552380D01*
X130080476Y-89504761D01*
X130128095Y-89457142D01*
X129223333Y-88552380D02*
X128890000Y-89552380D01*
X128556666Y-88552380D01*
X128318571Y-88552380D02*
X127699523Y-88552380D01*
X128032857Y-88933333D01*
X127890000Y-88933333D01*
X127794761Y-88980952D01*
X127747142Y-89028571D01*
X127699523Y-89123809D01*
X127699523Y-89361904D01*
X127747142Y-89457142D01*
X127794761Y-89504761D01*
X127890000Y-89552380D01*
X128175714Y-89552380D01*
X128270952Y-89504761D01*
X128318571Y-89457142D01*
X111026190Y-50827380D02*
X111026190Y-49827380D01*
X110550000Y-50446428D02*
X109788095Y-50446428D01*
X108835714Y-50827380D02*
X109311904Y-50827380D01*
X109311904Y-49827380D01*
X108502380Y-50303571D02*
X108169047Y-50303571D01*
X108026190Y-50827380D02*
X108502380Y-50827380D01*
X108502380Y-49827380D01*
X108026190Y-49827380D01*
X107597619Y-50827380D02*
X107597619Y-49827380D01*
X107359523Y-49827380D01*
X107216666Y-49875000D01*
X107121428Y-49970238D01*
X107073809Y-50065476D01*
X107026190Y-50255952D01*
X107026190Y-50398809D01*
X107073809Y-50589285D01*
X107121428Y-50684523D01*
X107216666Y-50779761D01*
X107359523Y-50827380D01*
X107597619Y-50827380D01*
X138991904Y-136067142D02*
X138991904Y-135167142D01*
X138753809Y-135167142D01*
X138610952Y-135210000D01*
X138515714Y-135295714D01*
X138468095Y-135381428D01*
X138420476Y-135552857D01*
X138420476Y-135681428D01*
X138468095Y-135852857D01*
X138515714Y-135938571D01*
X138610952Y-136024285D01*
X138753809Y-136067142D01*
X138991904Y-136067142D01*
X130070476Y-86949761D02*
X129927619Y-86997380D01*
X129689523Y-86997380D01*
X129594285Y-86949761D01*
X129546666Y-86902142D01*
X129499047Y-86806904D01*
X129499047Y-86711666D01*
X129546666Y-86616428D01*
X129594285Y-86568809D01*
X129689523Y-86521190D01*
X129880000Y-86473571D01*
X129975238Y-86425952D01*
X130022857Y-86378333D01*
X130070476Y-86283095D01*
X130070476Y-86187857D01*
X130022857Y-86092619D01*
X129975238Y-86045000D01*
X129880000Y-85997380D01*
X129641904Y-85997380D01*
X129499047Y-86045000D01*
X128499047Y-86902142D02*
X128546666Y-86949761D01*
X128689523Y-86997380D01*
X128784761Y-86997380D01*
X128927619Y-86949761D01*
X129022857Y-86854523D01*
X129070476Y-86759285D01*
X129118095Y-86568809D01*
X129118095Y-86425952D01*
X129070476Y-86235476D01*
X129022857Y-86140238D01*
X128927619Y-86045000D01*
X128784761Y-85997380D01*
X128689523Y-85997380D01*
X128546666Y-86045000D01*
X128499047Y-86092619D01*
X127594285Y-86997380D02*
X128070476Y-86997380D01*
X128070476Y-85997380D01*
X163315000Y-136578809D02*
X163315000Y-137578809D01*
X164502142Y-137388333D02*
X164549761Y-137340714D01*
X164597380Y-137197857D01*
X164597380Y-137102619D01*
X164549761Y-136959761D01*
X164454523Y-136864523D01*
X164359285Y-136816904D01*
X164168809Y-136769285D01*
X164025952Y-136769285D01*
X163835476Y-136816904D01*
X163740238Y-136864523D01*
X163645000Y-136959761D01*
X163597380Y-137102619D01*
X163597380Y-137197857D01*
X163645000Y-137340714D01*
X163692619Y-137388333D01*
X163315000Y-137578809D02*
X163315000Y-138531190D01*
X164549761Y-137769285D02*
X164597380Y-137912142D01*
X164597380Y-138150238D01*
X164549761Y-138245476D01*
X164502142Y-138293095D01*
X164406904Y-138340714D01*
X164311666Y-138340714D01*
X164216428Y-138293095D01*
X164168809Y-138245476D01*
X164121190Y-138150238D01*
X164073571Y-137959761D01*
X164025952Y-137864523D01*
X163978333Y-137816904D01*
X163883095Y-137769285D01*
X163787857Y-137769285D01*
X163692619Y-137816904D01*
X163645000Y-137864523D01*
X163597380Y-137959761D01*
X163597380Y-138197857D01*
X163645000Y-138340714D01*
X126645952Y-140536428D02*
X125884047Y-140536428D01*
X126265000Y-140917380D02*
X126265000Y-140155476D01*
X130529761Y-101310714D02*
X130577380Y-101453571D01*
X130577380Y-101691666D01*
X130529761Y-101786904D01*
X130482142Y-101834523D01*
X130386904Y-101882142D01*
X130291666Y-101882142D01*
X130196428Y-101834523D01*
X130148809Y-101786904D01*
X130101190Y-101691666D01*
X130053571Y-101501190D01*
X130005952Y-101405952D01*
X129958333Y-101358333D01*
X129863095Y-101310714D01*
X129767857Y-101310714D01*
X129672619Y-101358333D01*
X129625000Y-101405952D01*
X129577380Y-101501190D01*
X129577380Y-101739285D01*
X129625000Y-101882142D01*
X130482142Y-102882142D02*
X130529761Y-102834523D01*
X130577380Y-102691666D01*
X130577380Y-102596428D01*
X130529761Y-102453571D01*
X130434523Y-102358333D01*
X130339285Y-102310714D01*
X130148809Y-102263095D01*
X130005952Y-102263095D01*
X129815476Y-102310714D01*
X129720238Y-102358333D01*
X129625000Y-102453571D01*
X129577380Y-102596428D01*
X129577380Y-102691666D01*
X129625000Y-102834523D01*
X129672619Y-102882142D01*
X130291666Y-103263095D02*
X130291666Y-103739285D01*
X130577380Y-103167857D02*
X129577380Y-103501190D01*
X130577380Y-103834523D01*
X157057380Y-135318571D02*
X156057380Y-135318571D01*
X156771666Y-135651904D01*
X156057380Y-135985238D01*
X157057380Y-135985238D01*
X156057380Y-136651904D02*
X156057380Y-136842380D01*
X156105000Y-136937619D01*
X156200238Y-137032857D01*
X156390714Y-137080476D01*
X156724047Y-137080476D01*
X156914523Y-137032857D01*
X157009761Y-136937619D01*
X157057380Y-136842380D01*
X157057380Y-136651904D01*
X157009761Y-136556666D01*
X156914523Y-136461428D01*
X156724047Y-136413809D01*
X156390714Y-136413809D01*
X156200238Y-136461428D01*
X156105000Y-136556666D01*
X156057380Y-136651904D01*
X157009761Y-137461428D02*
X157057380Y-137604285D01*
X157057380Y-137842380D01*
X157009761Y-137937619D01*
X156962142Y-137985238D01*
X156866904Y-138032857D01*
X156771666Y-138032857D01*
X156676428Y-137985238D01*
X156628809Y-137937619D01*
X156581190Y-137842380D01*
X156533571Y-137651904D01*
X156485952Y-137556666D01*
X156438333Y-137509047D01*
X156343095Y-137461428D01*
X156247857Y-137461428D01*
X156152619Y-137509047D01*
X156105000Y-137556666D01*
X156057380Y-137651904D01*
X156057380Y-137890000D01*
X156105000Y-138032857D01*
X157057380Y-138461428D02*
X156057380Y-138461428D01*
X137240000Y-101828095D02*
X137192380Y-101732857D01*
X137192380Y-101590000D01*
X137240000Y-101447142D01*
X137335238Y-101351904D01*
X137430476Y-101304285D01*
X137620952Y-101256666D01*
X137763809Y-101256666D01*
X137954285Y-101304285D01*
X138049523Y-101351904D01*
X138144761Y-101447142D01*
X138192380Y-101590000D01*
X138192380Y-101685238D01*
X138144761Y-101828095D01*
X138097142Y-101875714D01*
X137763809Y-101875714D01*
X137763809Y-101685238D01*
X138192380Y-102304285D02*
X137192380Y-102304285D01*
X138192380Y-102875714D01*
X137192380Y-102875714D01*
X138192380Y-103351904D02*
X137192380Y-103351904D01*
X137192380Y-103590000D01*
X137240000Y-103732857D01*
X137335238Y-103828095D01*
X137430476Y-103875714D01*
X137620952Y-103923333D01*
X137763809Y-103923333D01*
X137954285Y-103875714D01*
X138049523Y-103828095D01*
X138144761Y-103732857D01*
X138192380Y-103590000D01*
X138192380Y-103351904D01*
X124090952Y-140626428D02*
X123329047Y-140626428D01*
X180294523Y-64252380D02*
X180294523Y-63252380D01*
X179961190Y-63966666D01*
X179627857Y-63252380D01*
X179627857Y-64252380D01*
X178627857Y-64252380D02*
X179199285Y-64252380D01*
X178913571Y-64252380D02*
X178913571Y-63252380D01*
X179008809Y-63395238D01*
X179104047Y-63490476D01*
X179199285Y-63538095D01*
X133064761Y-101474523D02*
X133112380Y-101617380D01*
X133112380Y-101855476D01*
X133064761Y-101950714D01*
X133017142Y-101998333D01*
X132921904Y-102045952D01*
X132826666Y-102045952D01*
X132731428Y-101998333D01*
X132683809Y-101950714D01*
X132636190Y-101855476D01*
X132588571Y-101665000D01*
X132540952Y-101569761D01*
X132493333Y-101522142D01*
X132398095Y-101474523D01*
X132302857Y-101474523D01*
X132207619Y-101522142D01*
X132160000Y-101569761D01*
X132112380Y-101665000D01*
X132112380Y-101903095D01*
X132160000Y-102045952D01*
X133017142Y-103045952D02*
X133064761Y-102998333D01*
X133112380Y-102855476D01*
X133112380Y-102760238D01*
X133064761Y-102617380D01*
X132969523Y-102522142D01*
X132874285Y-102474523D01*
X132683809Y-102426904D01*
X132540952Y-102426904D01*
X132350476Y-102474523D01*
X132255238Y-102522142D01*
X132160000Y-102617380D01*
X132112380Y-102760238D01*
X132112380Y-102855476D01*
X132160000Y-102998333D01*
X132207619Y-103045952D01*
X133112380Y-103950714D02*
X133112380Y-103474523D01*
X132112380Y-103474523D01*
X151199047Y-138203571D02*
X151960952Y-138203571D01*
X151580000Y-137822619D02*
X151580000Y-138584523D01*
X129716904Y-91125000D02*
X129812142Y-91077380D01*
X129955000Y-91077380D01*
X130097857Y-91125000D01*
X130193095Y-91220238D01*
X130240714Y-91315476D01*
X130288333Y-91505952D01*
X130288333Y-91648809D01*
X130240714Y-91839285D01*
X130193095Y-91934523D01*
X130097857Y-92029761D01*
X129955000Y-92077380D01*
X129859761Y-92077380D01*
X129716904Y-92029761D01*
X129669285Y-91982142D01*
X129669285Y-91648809D01*
X129859761Y-91648809D01*
X129240714Y-92077380D02*
X129240714Y-91077380D01*
X128669285Y-92077380D01*
X128669285Y-91077380D01*
X128193095Y-92077380D02*
X128193095Y-91077380D01*
X127955000Y-91077380D01*
X127812142Y-91125000D01*
X127716904Y-91220238D01*
X127669285Y-91315476D01*
X127621666Y-91505952D01*
X127621666Y-91648809D01*
X127669285Y-91839285D01*
X127716904Y-91934523D01*
X127812142Y-92029761D01*
X127955000Y-92077380D01*
X128193095Y-92077380D01*
G04 #@! TO.C,C49*
X125637857Y-56152142D02*
X125685476Y-56199761D01*
X125828333Y-56247380D01*
X125923571Y-56247380D01*
X126066428Y-56199761D01*
X126161666Y-56104523D01*
X126209285Y-56009285D01*
X126256904Y-55818809D01*
X126256904Y-55675952D01*
X126209285Y-55485476D01*
X126161666Y-55390238D01*
X126066428Y-55295000D01*
X125923571Y-55247380D01*
X125828333Y-55247380D01*
X125685476Y-55295000D01*
X125637857Y-55342619D01*
X124780714Y-55580714D02*
X124780714Y-56247380D01*
X125018809Y-55199761D02*
X125256904Y-55914047D01*
X124637857Y-55914047D01*
X124209285Y-56247380D02*
X124018809Y-56247380D01*
X123923571Y-56199761D01*
X123875952Y-56152142D01*
X123780714Y-56009285D01*
X123733095Y-55818809D01*
X123733095Y-55437857D01*
X123780714Y-55342619D01*
X123828333Y-55295000D01*
X123923571Y-55247380D01*
X124114047Y-55247380D01*
X124209285Y-55295000D01*
X124256904Y-55342619D01*
X124304523Y-55437857D01*
X124304523Y-55675952D01*
X124256904Y-55771190D01*
X124209285Y-55818809D01*
X124114047Y-55866428D01*
X123923571Y-55866428D01*
X123828333Y-55818809D01*
X123780714Y-55771190D01*
X123733095Y-55675952D01*
G04 #@! TO.C,C53*
X137642857Y-55927142D02*
X137690476Y-55974761D01*
X137833333Y-56022380D01*
X137928571Y-56022380D01*
X138071428Y-55974761D01*
X138166666Y-55879523D01*
X138214285Y-55784285D01*
X138261904Y-55593809D01*
X138261904Y-55450952D01*
X138214285Y-55260476D01*
X138166666Y-55165238D01*
X138071428Y-55070000D01*
X137928571Y-55022380D01*
X137833333Y-55022380D01*
X137690476Y-55070000D01*
X137642857Y-55117619D01*
X136738095Y-55022380D02*
X137214285Y-55022380D01*
X137261904Y-55498571D01*
X137214285Y-55450952D01*
X137119047Y-55403333D01*
X136880952Y-55403333D01*
X136785714Y-55450952D01*
X136738095Y-55498571D01*
X136690476Y-55593809D01*
X136690476Y-55831904D01*
X136738095Y-55927142D01*
X136785714Y-55974761D01*
X136880952Y-56022380D01*
X137119047Y-56022380D01*
X137214285Y-55974761D01*
X137261904Y-55927142D01*
X136357142Y-55022380D02*
X135738095Y-55022380D01*
X136071428Y-55403333D01*
X135928571Y-55403333D01*
X135833333Y-55450952D01*
X135785714Y-55498571D01*
X135738095Y-55593809D01*
X135738095Y-55831904D01*
X135785714Y-55927142D01*
X135833333Y-55974761D01*
X135928571Y-56022380D01*
X136214285Y-56022380D01*
X136309523Y-55974761D01*
X136357142Y-55927142D01*
G04 #@! TO.C,SW14*
X102150238Y-89109523D02*
X102102619Y-88966666D01*
X102102619Y-88728571D01*
X102150238Y-88633333D01*
X102197857Y-88585714D01*
X102293095Y-88538095D01*
X102388333Y-88538095D01*
X102483571Y-88585714D01*
X102531190Y-88633333D01*
X102578809Y-88728571D01*
X102626428Y-88919047D01*
X102674047Y-89014285D01*
X102721666Y-89061904D01*
X102816904Y-89109523D01*
X102912142Y-89109523D01*
X103007380Y-89061904D01*
X103055000Y-89014285D01*
X103102619Y-88919047D01*
X103102619Y-88680952D01*
X103055000Y-88538095D01*
X103102619Y-88204761D02*
X102102619Y-87966666D01*
X102816904Y-87776190D01*
X102102619Y-87585714D01*
X103102619Y-87347619D01*
X102102619Y-86442857D02*
X102102619Y-87014285D01*
X102102619Y-86728571D02*
X103102619Y-86728571D01*
X102959761Y-86823809D01*
X102864523Y-86919047D01*
X102816904Y-87014285D01*
X102769285Y-85585714D02*
X102102619Y-85585714D01*
X103150238Y-85823809D02*
X102435952Y-86061904D01*
X102435952Y-85442857D01*
D11*
G04 #@! TO.C,IM3*
X112019391Y-130217294D02*
X112019391Y-130644594D01*
X112767167Y-130430944D02*
X112019391Y-130430944D01*
X112019391Y-130822636D02*
X112767167Y-131321153D01*
X112019391Y-131321153D02*
X112767167Y-130822636D01*
X112767167Y-131606020D02*
X112019391Y-131606020D01*
X112019391Y-131784062D01*
X112055000Y-131890888D01*
X112126216Y-131962104D01*
X112197433Y-131997713D01*
X112339867Y-132033321D01*
X112446692Y-132033321D01*
X112589125Y-131997713D01*
X112660342Y-131962104D01*
X112731559Y-131890888D01*
X112767167Y-131784062D01*
X112767167Y-131606020D01*
X112019391Y-132496230D02*
X112019391Y-132567447D01*
X112055000Y-132638664D01*
X112090608Y-132674272D01*
X112161825Y-132709880D01*
X112304258Y-132745489D01*
X112482300Y-132745489D01*
X112624734Y-132709880D01*
X112695950Y-132674272D01*
X112731559Y-132638664D01*
X112767167Y-132567447D01*
X112767167Y-132496230D01*
X112731559Y-132425013D01*
X112695950Y-132389405D01*
X112624734Y-132353796D01*
X112482300Y-132318188D01*
X112304258Y-132318188D01*
X112161825Y-132353796D01*
X112090608Y-132389405D01*
X112055000Y-132425013D01*
X112019391Y-132496230D01*
X133087167Y-130413140D02*
X132339391Y-130413140D01*
X132339391Y-130911657D02*
X132339391Y-131054091D01*
X132375000Y-131125307D01*
X132446216Y-131196524D01*
X132588650Y-131232132D01*
X132837908Y-131232132D01*
X132980342Y-131196524D01*
X133051559Y-131125307D01*
X133087167Y-131054091D01*
X133087167Y-130911657D01*
X133051559Y-130840440D01*
X132980342Y-130769224D01*
X132837908Y-130733615D01*
X132588650Y-130733615D01*
X132446216Y-130769224D01*
X132375000Y-130840440D01*
X132339391Y-130911657D01*
X133087167Y-131944300D02*
X133087167Y-131517000D01*
X133087167Y-131730650D02*
X132339391Y-131730650D01*
X132446216Y-131659433D01*
X132517433Y-131588216D01*
X132553041Y-131517000D01*
X132339391Y-132585251D02*
X132339391Y-132442817D01*
X132375000Y-132371601D01*
X132410608Y-132335992D01*
X132517433Y-132264776D01*
X132659867Y-132229167D01*
X132944734Y-132229167D01*
X133015950Y-132264776D01*
X133051559Y-132300384D01*
X133087167Y-132371601D01*
X133087167Y-132514034D01*
X133051559Y-132585251D01*
X133015950Y-132620859D01*
X132944734Y-132656468D01*
X132766692Y-132656468D01*
X132695475Y-132620859D01*
X132659867Y-132585251D01*
X132624258Y-132514034D01*
X132624258Y-132371601D01*
X132659867Y-132300384D01*
X132695475Y-132264776D01*
X132766692Y-132229167D01*
X145783783Y-109531377D02*
X145819391Y-109638203D01*
X145819391Y-109816244D01*
X145783783Y-109887461D01*
X145748174Y-109923070D01*
X145676958Y-109958678D01*
X145605741Y-109958678D01*
X145534524Y-109923070D01*
X145498916Y-109887461D01*
X145463307Y-109816244D01*
X145427699Y-109673811D01*
X145392091Y-109602594D01*
X145356482Y-109566986D01*
X145285265Y-109531377D01*
X145214049Y-109531377D01*
X145142832Y-109566986D01*
X145107224Y-109602594D01*
X145071615Y-109673811D01*
X145071615Y-109851853D01*
X145107224Y-109958678D01*
X145819391Y-110279153D02*
X145071615Y-110279153D01*
X145071615Y-110457195D01*
X145107224Y-110564020D01*
X145178440Y-110635237D01*
X145249657Y-110670846D01*
X145392091Y-110706454D01*
X145498916Y-110706454D01*
X145641349Y-110670846D01*
X145712566Y-110635237D01*
X145783783Y-110564020D01*
X145819391Y-110457195D01*
X145819391Y-110279153D01*
X145071615Y-110955713D02*
X145071615Y-111418622D01*
X145356482Y-111169363D01*
X145356482Y-111276188D01*
X145392091Y-111347405D01*
X145427699Y-111383013D01*
X145498916Y-111418622D01*
X145676958Y-111418622D01*
X145748174Y-111383013D01*
X145783783Y-111347405D01*
X145819391Y-111276188D01*
X145819391Y-111062538D01*
X145783783Y-110991321D01*
X145748174Y-110955713D01*
X122927167Y-130413140D02*
X122179391Y-130413140D01*
X122179391Y-130911657D02*
X122179391Y-131054091D01*
X122215000Y-131125307D01*
X122286216Y-131196524D01*
X122428650Y-131232132D01*
X122677908Y-131232132D01*
X122820342Y-131196524D01*
X122891559Y-131125307D01*
X122927167Y-131054091D01*
X122927167Y-130911657D01*
X122891559Y-130840440D01*
X122820342Y-130769224D01*
X122677908Y-130733615D01*
X122428650Y-130733615D01*
X122286216Y-130769224D01*
X122215000Y-130840440D01*
X122179391Y-130911657D01*
X122927167Y-131944300D02*
X122927167Y-131517000D01*
X122927167Y-131730650D02*
X122179391Y-131730650D01*
X122286216Y-131659433D01*
X122357433Y-131588216D01*
X122393041Y-131517000D01*
X122927167Y-132300384D02*
X122927167Y-132442817D01*
X122891559Y-132514034D01*
X122855950Y-132549643D01*
X122749125Y-132620859D01*
X122606692Y-132656468D01*
X122321825Y-132656468D01*
X122250608Y-132620859D01*
X122215000Y-132585251D01*
X122179391Y-132514034D01*
X122179391Y-132371601D01*
X122215000Y-132300384D01*
X122250608Y-132264776D01*
X122321825Y-132229167D01*
X122499867Y-132229167D01*
X122571083Y-132264776D01*
X122606692Y-132300384D01*
X122642300Y-132371601D01*
X122642300Y-132514034D01*
X122606692Y-132585251D01*
X122571083Y-132620859D01*
X122499867Y-132656468D01*
X140707167Y-130769224D02*
X139959391Y-130769224D01*
X139959391Y-131267741D02*
X139959391Y-131410174D01*
X139995000Y-131481391D01*
X140066216Y-131552608D01*
X140208650Y-131588216D01*
X140457908Y-131588216D01*
X140600342Y-131552608D01*
X140671559Y-131481391D01*
X140707167Y-131410174D01*
X140707167Y-131267741D01*
X140671559Y-131196524D01*
X140600342Y-131125307D01*
X140457908Y-131089699D01*
X140208650Y-131089699D01*
X140066216Y-131125307D01*
X139995000Y-131196524D01*
X139959391Y-131267741D01*
X140030608Y-131873083D02*
X139995000Y-131908692D01*
X139959391Y-131979908D01*
X139959391Y-132157950D01*
X139995000Y-132229167D01*
X140030608Y-132264776D01*
X140101825Y-132300384D01*
X140173041Y-132300384D01*
X140279867Y-132264776D01*
X140707167Y-131837475D01*
X140707167Y-132300384D01*
X110273783Y-109566986D02*
X110309391Y-109673811D01*
X110309391Y-109851853D01*
X110273783Y-109923070D01*
X110238174Y-109958678D01*
X110166958Y-109994286D01*
X110095741Y-109994286D01*
X110024524Y-109958678D01*
X109988916Y-109923070D01*
X109953307Y-109851853D01*
X109917699Y-109709419D01*
X109882091Y-109638203D01*
X109846482Y-109602594D01*
X109775265Y-109566986D01*
X109704049Y-109566986D01*
X109632832Y-109602594D01*
X109597224Y-109638203D01*
X109561615Y-109709419D01*
X109561615Y-109887461D01*
X109597224Y-109994286D01*
X109561615Y-110207937D02*
X110309391Y-110457195D01*
X109561615Y-110706454D01*
X110309391Y-110955713D02*
X109561615Y-110955713D01*
X109561615Y-111240580D01*
X109597224Y-111311796D01*
X109632832Y-111347405D01*
X109704049Y-111383013D01*
X109810874Y-111383013D01*
X109882091Y-111347405D01*
X109917699Y-111311796D01*
X109953307Y-111240580D01*
X109953307Y-110955713D01*
X107687167Y-130413140D02*
X106939391Y-130413140D01*
X106939391Y-130911657D02*
X106939391Y-131054091D01*
X106975000Y-131125307D01*
X107046216Y-131196524D01*
X107188650Y-131232132D01*
X107437908Y-131232132D01*
X107580342Y-131196524D01*
X107651559Y-131125307D01*
X107687167Y-131054091D01*
X107687167Y-130911657D01*
X107651559Y-130840440D01*
X107580342Y-130769224D01*
X107437908Y-130733615D01*
X107188650Y-130733615D01*
X107046216Y-130769224D01*
X106975000Y-130840440D01*
X106939391Y-130911657D01*
X107010608Y-131517000D02*
X106975000Y-131552608D01*
X106939391Y-131623825D01*
X106939391Y-131801867D01*
X106975000Y-131873083D01*
X107010608Y-131908692D01*
X107081825Y-131944300D01*
X107153041Y-131944300D01*
X107259867Y-131908692D01*
X107687167Y-131481391D01*
X107687167Y-131944300D01*
X106939391Y-132193559D02*
X106939391Y-132656468D01*
X107224258Y-132407209D01*
X107224258Y-132514034D01*
X107259867Y-132585251D01*
X107295475Y-132620859D01*
X107366692Y-132656468D01*
X107544734Y-132656468D01*
X107615950Y-132620859D01*
X107651559Y-132585251D01*
X107687167Y-132514034D01*
X107687167Y-132300384D01*
X107651559Y-132229167D01*
X107615950Y-132193559D01*
X145751559Y-130831377D02*
X145787167Y-130938203D01*
X145787167Y-131116244D01*
X145751559Y-131187461D01*
X145715950Y-131223070D01*
X145644734Y-131258678D01*
X145573517Y-131258678D01*
X145502300Y-131223070D01*
X145466692Y-131187461D01*
X145431083Y-131116244D01*
X145395475Y-130973811D01*
X145359867Y-130902594D01*
X145324258Y-130866986D01*
X145253041Y-130831377D01*
X145181825Y-130831377D01*
X145110608Y-130866986D01*
X145075000Y-130902594D01*
X145039391Y-130973811D01*
X145039391Y-131151853D01*
X145075000Y-131258678D01*
X145787167Y-131579153D02*
X145039391Y-131579153D01*
X145039391Y-131757195D01*
X145075000Y-131864020D01*
X145146216Y-131935237D01*
X145217433Y-131970846D01*
X145359867Y-132006454D01*
X145466692Y-132006454D01*
X145609125Y-131970846D01*
X145680342Y-131935237D01*
X145751559Y-131864020D01*
X145787167Y-131757195D01*
X145787167Y-131579153D01*
X145787167Y-132718622D02*
X145787167Y-132291321D01*
X145787167Y-132504971D02*
X145039391Y-132504971D01*
X145146216Y-132433755D01*
X145217433Y-132362538D01*
X145253041Y-132291321D01*
X119675000Y-130947265D02*
X119639391Y-130876049D01*
X119639391Y-130769224D01*
X119675000Y-130662398D01*
X119746216Y-130591182D01*
X119817433Y-130555573D01*
X119959867Y-130519965D01*
X120066692Y-130519965D01*
X120209125Y-130555573D01*
X120280342Y-130591182D01*
X120351559Y-130662398D01*
X120387167Y-130769224D01*
X120387167Y-130840440D01*
X120351559Y-130947265D01*
X120315950Y-130982874D01*
X120066692Y-130982874D01*
X120066692Y-130840440D01*
X120387167Y-131303349D02*
X119639391Y-131303349D01*
X120387167Y-131730650D01*
X119639391Y-131730650D01*
X120387167Y-132086734D02*
X119639391Y-132086734D01*
X119639391Y-132264776D01*
X119675000Y-132371601D01*
X119746216Y-132442817D01*
X119817433Y-132478426D01*
X119959867Y-132514034D01*
X120066692Y-132514034D01*
X120209125Y-132478426D01*
X120280342Y-132442817D01*
X120351559Y-132371601D01*
X120387167Y-132264776D01*
X120387167Y-132086734D01*
X130629391Y-109371140D02*
X129881615Y-109371140D01*
X129881615Y-109869657D02*
X129881615Y-110012091D01*
X129917224Y-110083307D01*
X129988440Y-110154524D01*
X130130874Y-110190132D01*
X130380132Y-110190132D01*
X130522566Y-110154524D01*
X130593783Y-110083307D01*
X130629391Y-110012091D01*
X130629391Y-109869657D01*
X130593783Y-109798440D01*
X130522566Y-109727224D01*
X130380132Y-109691615D01*
X130130874Y-109691615D01*
X129988440Y-109727224D01*
X129917224Y-109798440D01*
X129881615Y-109869657D01*
X129952832Y-110475000D02*
X129917224Y-110510608D01*
X129881615Y-110581825D01*
X129881615Y-110759867D01*
X129917224Y-110831083D01*
X129952832Y-110866692D01*
X130024049Y-110902300D01*
X130095265Y-110902300D01*
X130202091Y-110866692D01*
X130629391Y-110439391D01*
X130629391Y-110902300D01*
X129881615Y-111151559D02*
X129881615Y-111650076D01*
X130629391Y-111329601D01*
X137537224Y-109905265D02*
X137501615Y-109834049D01*
X137501615Y-109727224D01*
X137537224Y-109620398D01*
X137608440Y-109549182D01*
X137679657Y-109513573D01*
X137822091Y-109477965D01*
X137928916Y-109477965D01*
X138071349Y-109513573D01*
X138142566Y-109549182D01*
X138213783Y-109620398D01*
X138249391Y-109727224D01*
X138249391Y-109798440D01*
X138213783Y-109905265D01*
X138178174Y-109940874D01*
X137928916Y-109940874D01*
X137928916Y-109798440D01*
X138249391Y-110261349D02*
X137501615Y-110261349D01*
X138249391Y-110688650D01*
X137501615Y-110688650D01*
X138249391Y-111044734D02*
X137501615Y-111044734D01*
X137501615Y-111222776D01*
X137537224Y-111329601D01*
X137608440Y-111400817D01*
X137679657Y-111436426D01*
X137822091Y-111472034D01*
X137928916Y-111472034D01*
X138071349Y-111436426D01*
X138142566Y-111400817D01*
X138213783Y-111329601D01*
X138249391Y-111222776D01*
X138249391Y-111044734D01*
X130547167Y-130413140D02*
X129799391Y-130413140D01*
X129799391Y-130911657D02*
X129799391Y-131054091D01*
X129835000Y-131125307D01*
X129906216Y-131196524D01*
X130048650Y-131232132D01*
X130297908Y-131232132D01*
X130440342Y-131196524D01*
X130511559Y-131125307D01*
X130547167Y-131054091D01*
X130547167Y-130911657D01*
X130511559Y-130840440D01*
X130440342Y-130769224D01*
X130297908Y-130733615D01*
X130048650Y-130733615D01*
X129906216Y-130769224D01*
X129835000Y-130840440D01*
X129799391Y-130911657D01*
X130547167Y-131944300D02*
X130547167Y-131517000D01*
X130547167Y-131730650D02*
X129799391Y-131730650D01*
X129906216Y-131659433D01*
X129977433Y-131588216D01*
X130013041Y-131517000D01*
X129799391Y-132193559D02*
X129799391Y-132692076D01*
X130547167Y-132371601D01*
X125549391Y-109371140D02*
X124801615Y-109371140D01*
X124801615Y-109869657D02*
X124801615Y-110012091D01*
X124837224Y-110083307D01*
X124908440Y-110154524D01*
X125050874Y-110190132D01*
X125300132Y-110190132D01*
X125442566Y-110154524D01*
X125513783Y-110083307D01*
X125549391Y-110012091D01*
X125549391Y-109869657D01*
X125513783Y-109798440D01*
X125442566Y-109727224D01*
X125300132Y-109691615D01*
X125050874Y-109691615D01*
X124908440Y-109727224D01*
X124837224Y-109798440D01*
X124801615Y-109869657D01*
X124872832Y-110475000D02*
X124837224Y-110510608D01*
X124801615Y-110581825D01*
X124801615Y-110759867D01*
X124837224Y-110831083D01*
X124872832Y-110866692D01*
X124944049Y-110902300D01*
X125015265Y-110902300D01*
X125122091Y-110866692D01*
X125549391Y-110439391D01*
X125549391Y-110902300D01*
X124801615Y-111578859D02*
X124801615Y-111222776D01*
X125157699Y-111187167D01*
X125122091Y-111222776D01*
X125086482Y-111293992D01*
X125086482Y-111472034D01*
X125122091Y-111543251D01*
X125157699Y-111578859D01*
X125228916Y-111614468D01*
X125406958Y-111614468D01*
X125478174Y-111578859D01*
X125513783Y-111543251D01*
X125549391Y-111472034D01*
X125549391Y-111293992D01*
X125513783Y-111222776D01*
X125478174Y-111187167D01*
X143293783Y-109531377D02*
X143329391Y-109638203D01*
X143329391Y-109816244D01*
X143293783Y-109887461D01*
X143258174Y-109923070D01*
X143186958Y-109958678D01*
X143115741Y-109958678D01*
X143044524Y-109923070D01*
X143008916Y-109887461D01*
X142973307Y-109816244D01*
X142937699Y-109673811D01*
X142902091Y-109602594D01*
X142866482Y-109566986D01*
X142795265Y-109531377D01*
X142724049Y-109531377D01*
X142652832Y-109566986D01*
X142617224Y-109602594D01*
X142581615Y-109673811D01*
X142581615Y-109851853D01*
X142617224Y-109958678D01*
X143329391Y-110279153D02*
X142581615Y-110279153D01*
X142581615Y-110457195D01*
X142617224Y-110564020D01*
X142688440Y-110635237D01*
X142759657Y-110670846D01*
X142902091Y-110706454D01*
X143008916Y-110706454D01*
X143151349Y-110670846D01*
X143222566Y-110635237D01*
X143293783Y-110564020D01*
X143329391Y-110457195D01*
X143329391Y-110279153D01*
X142652832Y-110991321D02*
X142617224Y-111026929D01*
X142581615Y-111098146D01*
X142581615Y-111276188D01*
X142617224Y-111347405D01*
X142652832Y-111383013D01*
X142724049Y-111418622D01*
X142795265Y-111418622D01*
X142902091Y-111383013D01*
X143329391Y-110955713D01*
X143329391Y-111418622D01*
X112813783Y-109549182D02*
X112849391Y-109656007D01*
X112849391Y-109834049D01*
X112813783Y-109905265D01*
X112778174Y-109940874D01*
X112706958Y-109976482D01*
X112635741Y-109976482D01*
X112564524Y-109940874D01*
X112528916Y-109905265D01*
X112493307Y-109834049D01*
X112457699Y-109691615D01*
X112422091Y-109620398D01*
X112386482Y-109584790D01*
X112315265Y-109549182D01*
X112244049Y-109549182D01*
X112172832Y-109584790D01*
X112137224Y-109620398D01*
X112101615Y-109691615D01*
X112101615Y-109869657D01*
X112137224Y-109976482D01*
X112101615Y-110190132D02*
X112849391Y-110439391D01*
X112101615Y-110688650D01*
X112849391Y-110937908D02*
X112101615Y-110937908D01*
X112849391Y-111365209D01*
X112101615Y-111365209D01*
X107377699Y-109923070D02*
X107377699Y-110172328D01*
X107769391Y-110279153D02*
X107769391Y-109923070D01*
X107021615Y-109923070D01*
X107021615Y-110279153D01*
X107769391Y-110599629D02*
X107021615Y-110599629D01*
X107769391Y-111026929D01*
X107021615Y-111026929D01*
X115307167Y-130662398D02*
X114951083Y-130413140D01*
X115307167Y-130235098D02*
X114559391Y-130235098D01*
X114559391Y-130519965D01*
X114595000Y-130591182D01*
X114630608Y-130626790D01*
X114701825Y-130662398D01*
X114808650Y-130662398D01*
X114879867Y-130626790D01*
X114915475Y-130591182D01*
X114951083Y-130519965D01*
X114951083Y-130235098D01*
X114559391Y-130911657D02*
X115307167Y-131410174D01*
X114559391Y-131410174D02*
X115307167Y-130911657D01*
X115307167Y-131695041D02*
X114559391Y-131695041D01*
X114559391Y-131873083D01*
X114595000Y-131979908D01*
X114666216Y-132051125D01*
X114737433Y-132086734D01*
X114879867Y-132122342D01*
X114986692Y-132122342D01*
X115129125Y-132086734D01*
X115200342Y-132051125D01*
X115271559Y-131979908D01*
X115307167Y-131873083D01*
X115307167Y-131695041D01*
X114559391Y-132585251D02*
X114559391Y-132656468D01*
X114595000Y-132727684D01*
X114630608Y-132763293D01*
X114701825Y-132798901D01*
X114844258Y-132834510D01*
X115022300Y-132834510D01*
X115164734Y-132798901D01*
X115235950Y-132763293D01*
X115271559Y-132727684D01*
X115307167Y-132656468D01*
X115307167Y-132585251D01*
X115271559Y-132514034D01*
X115235950Y-132478426D01*
X115164734Y-132442817D01*
X115022300Y-132407209D01*
X114844258Y-132407209D01*
X114701825Y-132442817D01*
X114630608Y-132478426D01*
X114595000Y-132514034D01*
X114559391Y-132585251D01*
X148338174Y-109740265D02*
X148373783Y-109704657D01*
X148409391Y-109597832D01*
X148409391Y-109526615D01*
X148373783Y-109419790D01*
X148302566Y-109348573D01*
X148231349Y-109312965D01*
X148088916Y-109277356D01*
X147982091Y-109277356D01*
X147839657Y-109312965D01*
X147768440Y-109348573D01*
X147697224Y-109419790D01*
X147661615Y-109526615D01*
X147661615Y-109597832D01*
X147697224Y-109704657D01*
X147732832Y-109740265D01*
X148409391Y-110060741D02*
X147661615Y-110060741D01*
X148195741Y-110310000D01*
X147661615Y-110559258D01*
X148409391Y-110559258D01*
X148409391Y-110915342D02*
X147661615Y-110915342D01*
X147661615Y-111093384D01*
X147697224Y-111200209D01*
X147768440Y-111271426D01*
X147839657Y-111307034D01*
X147982091Y-111342643D01*
X148088916Y-111342643D01*
X148231349Y-111307034D01*
X148302566Y-111271426D01*
X148373783Y-111200209D01*
X148409391Y-111093384D01*
X148409391Y-110915342D01*
X123009391Y-109371140D02*
X122261615Y-109371140D01*
X122261615Y-109869657D02*
X122261615Y-110012091D01*
X122297224Y-110083307D01*
X122368440Y-110154524D01*
X122510874Y-110190132D01*
X122760132Y-110190132D01*
X122902566Y-110154524D01*
X122973783Y-110083307D01*
X123009391Y-110012091D01*
X123009391Y-109869657D01*
X122973783Y-109798440D01*
X122902566Y-109727224D01*
X122760132Y-109691615D01*
X122510874Y-109691615D01*
X122368440Y-109727224D01*
X122297224Y-109798440D01*
X122261615Y-109869657D01*
X122261615Y-110439391D02*
X122261615Y-110902300D01*
X122546482Y-110653041D01*
X122546482Y-110759867D01*
X122582091Y-110831083D01*
X122617699Y-110866692D01*
X122688916Y-110902300D01*
X122866958Y-110902300D01*
X122938174Y-110866692D01*
X122973783Y-110831083D01*
X123009391Y-110759867D01*
X123009391Y-110546216D01*
X122973783Y-110475000D01*
X122938174Y-110439391D01*
X122261615Y-111151559D02*
X122261615Y-111614468D01*
X122546482Y-111365209D01*
X122546482Y-111472034D01*
X122582091Y-111543251D01*
X122617699Y-111578859D01*
X122688916Y-111614468D01*
X122866958Y-111614468D01*
X122938174Y-111578859D01*
X122973783Y-111543251D01*
X123009391Y-111472034D01*
X123009391Y-111258384D01*
X122973783Y-111187167D01*
X122938174Y-111151559D01*
X104435000Y-130947265D02*
X104399391Y-130876049D01*
X104399391Y-130769224D01*
X104435000Y-130662398D01*
X104506216Y-130591182D01*
X104577433Y-130555573D01*
X104719867Y-130519965D01*
X104826692Y-130519965D01*
X104969125Y-130555573D01*
X105040342Y-130591182D01*
X105111559Y-130662398D01*
X105147167Y-130769224D01*
X105147167Y-130840440D01*
X105111559Y-130947265D01*
X105075950Y-130982874D01*
X104826692Y-130982874D01*
X104826692Y-130840440D01*
X105147167Y-131303349D02*
X104399391Y-131303349D01*
X105147167Y-131730650D01*
X104399391Y-131730650D01*
X105147167Y-132086734D02*
X104399391Y-132086734D01*
X104399391Y-132264776D01*
X104435000Y-132371601D01*
X104506216Y-132442817D01*
X104577433Y-132478426D01*
X104719867Y-132514034D01*
X104826692Y-132514034D01*
X104969125Y-132478426D01*
X105040342Y-132442817D01*
X105111559Y-132371601D01*
X105147167Y-132264776D01*
X105147167Y-132086734D01*
X115389391Y-109371140D02*
X114641615Y-109371140D01*
X114641615Y-109869657D02*
X114641615Y-110012091D01*
X114677224Y-110083307D01*
X114748440Y-110154524D01*
X114890874Y-110190132D01*
X115140132Y-110190132D01*
X115282566Y-110154524D01*
X115353783Y-110083307D01*
X115389391Y-110012091D01*
X115389391Y-109869657D01*
X115353783Y-109798440D01*
X115282566Y-109727224D01*
X115140132Y-109691615D01*
X114890874Y-109691615D01*
X114748440Y-109727224D01*
X114677224Y-109798440D01*
X114641615Y-109869657D01*
X114641615Y-110439391D02*
X114641615Y-110902300D01*
X114926482Y-110653041D01*
X114926482Y-110759867D01*
X114962091Y-110831083D01*
X114997699Y-110866692D01*
X115068916Y-110902300D01*
X115246958Y-110902300D01*
X115318174Y-110866692D01*
X115353783Y-110831083D01*
X115389391Y-110759867D01*
X115389391Y-110546216D01*
X115353783Y-110475000D01*
X115318174Y-110439391D01*
X114890874Y-111543251D02*
X115389391Y-111543251D01*
X114606007Y-111365209D02*
X115140132Y-111187167D01*
X115140132Y-111650076D01*
X135627167Y-130769224D02*
X134879391Y-130769224D01*
X134879391Y-131267741D02*
X134879391Y-131410174D01*
X134915000Y-131481391D01*
X134986216Y-131552608D01*
X135128650Y-131588216D01*
X135377908Y-131588216D01*
X135520342Y-131552608D01*
X135591559Y-131481391D01*
X135627167Y-131410174D01*
X135627167Y-131267741D01*
X135591559Y-131196524D01*
X135520342Y-131125307D01*
X135377908Y-131089699D01*
X135128650Y-131089699D01*
X134986216Y-131125307D01*
X134915000Y-131196524D01*
X134879391Y-131267741D01*
X135128650Y-132229167D02*
X135627167Y-132229167D01*
X134843783Y-132051125D02*
X135377908Y-131873083D01*
X135377908Y-132335992D01*
X143247167Y-130413140D02*
X142499391Y-130413140D01*
X142499391Y-130911657D02*
X142499391Y-131054091D01*
X142535000Y-131125307D01*
X142606216Y-131196524D01*
X142748650Y-131232132D01*
X142997908Y-131232132D01*
X143140342Y-131196524D01*
X143211559Y-131125307D01*
X143247167Y-131054091D01*
X143247167Y-130911657D01*
X143211559Y-130840440D01*
X143140342Y-130769224D01*
X142997908Y-130733615D01*
X142748650Y-130733615D01*
X142606216Y-130769224D01*
X142535000Y-130840440D01*
X142499391Y-130911657D01*
X143247167Y-131944300D02*
X143247167Y-131517000D01*
X143247167Y-131730650D02*
X142499391Y-131730650D01*
X142606216Y-131659433D01*
X142677433Y-131588216D01*
X142713041Y-131517000D01*
X142499391Y-132620859D02*
X142499391Y-132264776D01*
X142855475Y-132229167D01*
X142819867Y-132264776D01*
X142784258Y-132335992D01*
X142784258Y-132514034D01*
X142819867Y-132585251D01*
X142855475Y-132620859D01*
X142926692Y-132656468D01*
X143104734Y-132656468D01*
X143175950Y-132620859D01*
X143211559Y-132585251D01*
X143247167Y-132514034D01*
X143247167Y-132335992D01*
X143211559Y-132264776D01*
X143175950Y-132229167D01*
X135709391Y-109371140D02*
X134961615Y-109371140D01*
X134961615Y-109869657D02*
X134961615Y-110012091D01*
X134997224Y-110083307D01*
X135068440Y-110154524D01*
X135210874Y-110190132D01*
X135460132Y-110190132D01*
X135602566Y-110154524D01*
X135673783Y-110083307D01*
X135709391Y-110012091D01*
X135709391Y-109869657D01*
X135673783Y-109798440D01*
X135602566Y-109727224D01*
X135460132Y-109691615D01*
X135210874Y-109691615D01*
X135068440Y-109727224D01*
X134997224Y-109798440D01*
X134961615Y-109869657D01*
X135709391Y-110902300D02*
X135709391Y-110475000D01*
X135709391Y-110688650D02*
X134961615Y-110688650D01*
X135068440Y-110617433D01*
X135139657Y-110546216D01*
X135175265Y-110475000D01*
X135032832Y-111187167D02*
X134997224Y-111222776D01*
X134961615Y-111293992D01*
X134961615Y-111472034D01*
X134997224Y-111543251D01*
X135032832Y-111578859D01*
X135104049Y-111614468D01*
X135175265Y-111614468D01*
X135282091Y-111578859D01*
X135709391Y-111151559D01*
X135709391Y-111614468D01*
X128089391Y-109371140D02*
X127341615Y-109371140D01*
X127341615Y-109869657D02*
X127341615Y-110012091D01*
X127377224Y-110083307D01*
X127448440Y-110154524D01*
X127590874Y-110190132D01*
X127840132Y-110190132D01*
X127982566Y-110154524D01*
X128053783Y-110083307D01*
X128089391Y-110012091D01*
X128089391Y-109869657D01*
X128053783Y-109798440D01*
X127982566Y-109727224D01*
X127840132Y-109691615D01*
X127590874Y-109691615D01*
X127448440Y-109727224D01*
X127377224Y-109798440D01*
X127341615Y-109869657D01*
X127412832Y-110475000D02*
X127377224Y-110510608D01*
X127341615Y-110581825D01*
X127341615Y-110759867D01*
X127377224Y-110831083D01*
X127412832Y-110866692D01*
X127484049Y-110902300D01*
X127555265Y-110902300D01*
X127662091Y-110866692D01*
X128089391Y-110439391D01*
X128089391Y-110902300D01*
X127341615Y-111543251D02*
X127341615Y-111400817D01*
X127377224Y-111329601D01*
X127412832Y-111293992D01*
X127519657Y-111222776D01*
X127662091Y-111187167D01*
X127946958Y-111187167D01*
X128018174Y-111222776D01*
X128053783Y-111258384D01*
X128089391Y-111329601D01*
X128089391Y-111472034D01*
X128053783Y-111543251D01*
X128018174Y-111578859D01*
X127946958Y-111614468D01*
X127768916Y-111614468D01*
X127697699Y-111578859D01*
X127662091Y-111543251D01*
X127626482Y-111472034D01*
X127626482Y-111329601D01*
X127662091Y-111258384D01*
X127697699Y-111222776D01*
X127768916Y-111187167D01*
X148291559Y-130831377D02*
X148327167Y-130938203D01*
X148327167Y-131116244D01*
X148291559Y-131187461D01*
X148255950Y-131223070D01*
X148184734Y-131258678D01*
X148113517Y-131258678D01*
X148042300Y-131223070D01*
X148006692Y-131187461D01*
X147971083Y-131116244D01*
X147935475Y-130973811D01*
X147899867Y-130902594D01*
X147864258Y-130866986D01*
X147793041Y-130831377D01*
X147721825Y-130831377D01*
X147650608Y-130866986D01*
X147615000Y-130902594D01*
X147579391Y-130973811D01*
X147579391Y-131151853D01*
X147615000Y-131258678D01*
X148327167Y-131579153D02*
X147579391Y-131579153D01*
X147579391Y-131757195D01*
X147615000Y-131864020D01*
X147686216Y-131935237D01*
X147757433Y-131970846D01*
X147899867Y-132006454D01*
X148006692Y-132006454D01*
X148149125Y-131970846D01*
X148220342Y-131935237D01*
X148291559Y-131864020D01*
X148327167Y-131757195D01*
X148327167Y-131579153D01*
X147579391Y-132469363D02*
X147579391Y-132540580D01*
X147615000Y-132611796D01*
X147650608Y-132647405D01*
X147721825Y-132683013D01*
X147864258Y-132718622D01*
X148042300Y-132718622D01*
X148184734Y-132683013D01*
X148255950Y-132647405D01*
X148291559Y-132611796D01*
X148327167Y-132540580D01*
X148327167Y-132469363D01*
X148291559Y-132398146D01*
X148255950Y-132362538D01*
X148184734Y-132326929D01*
X148042300Y-132291321D01*
X147864258Y-132291321D01*
X147721825Y-132326929D01*
X147650608Y-132362538D01*
X147615000Y-132398146D01*
X147579391Y-132469363D01*
X110227167Y-130413140D02*
X109479391Y-130413140D01*
X109479391Y-130911657D02*
X109479391Y-131054091D01*
X109515000Y-131125307D01*
X109586216Y-131196524D01*
X109728650Y-131232132D01*
X109977908Y-131232132D01*
X110120342Y-131196524D01*
X110191559Y-131125307D01*
X110227167Y-131054091D01*
X110227167Y-130911657D01*
X110191559Y-130840440D01*
X110120342Y-130769224D01*
X109977908Y-130733615D01*
X109728650Y-130733615D01*
X109586216Y-130769224D01*
X109515000Y-130840440D01*
X109479391Y-130911657D01*
X109550608Y-131517000D02*
X109515000Y-131552608D01*
X109479391Y-131623825D01*
X109479391Y-131801867D01*
X109515000Y-131873083D01*
X109550608Y-131908692D01*
X109621825Y-131944300D01*
X109693041Y-131944300D01*
X109799867Y-131908692D01*
X110227167Y-131481391D01*
X110227167Y-131944300D01*
X109550608Y-132229167D02*
X109515000Y-132264776D01*
X109479391Y-132335992D01*
X109479391Y-132514034D01*
X109515000Y-132585251D01*
X109550608Y-132620859D01*
X109621825Y-132656468D01*
X109693041Y-132656468D01*
X109799867Y-132620859D01*
X110227167Y-132193559D01*
X110227167Y-132656468D01*
X117929391Y-109371140D02*
X117181615Y-109371140D01*
X117181615Y-109869657D02*
X117181615Y-110012091D01*
X117217224Y-110083307D01*
X117288440Y-110154524D01*
X117430874Y-110190132D01*
X117680132Y-110190132D01*
X117822566Y-110154524D01*
X117893783Y-110083307D01*
X117929391Y-110012091D01*
X117929391Y-109869657D01*
X117893783Y-109798440D01*
X117822566Y-109727224D01*
X117680132Y-109691615D01*
X117430874Y-109691615D01*
X117288440Y-109727224D01*
X117217224Y-109798440D01*
X117181615Y-109869657D01*
X117181615Y-110439391D02*
X117181615Y-110902300D01*
X117466482Y-110653041D01*
X117466482Y-110759867D01*
X117502091Y-110831083D01*
X117537699Y-110866692D01*
X117608916Y-110902300D01*
X117786958Y-110902300D01*
X117858174Y-110866692D01*
X117893783Y-110831083D01*
X117929391Y-110759867D01*
X117929391Y-110546216D01*
X117893783Y-110475000D01*
X117858174Y-110439391D01*
X117181615Y-111578859D02*
X117181615Y-111222776D01*
X117537699Y-111187167D01*
X117502091Y-111222776D01*
X117466482Y-111293992D01*
X117466482Y-111472034D01*
X117502091Y-111543251D01*
X117537699Y-111578859D01*
X117608916Y-111614468D01*
X117786958Y-111614468D01*
X117858174Y-111578859D01*
X117893783Y-111543251D01*
X117929391Y-111472034D01*
X117929391Y-111293992D01*
X117893783Y-111222776D01*
X117858174Y-111187167D01*
X150795950Y-131329895D02*
X150831559Y-131294286D01*
X150867167Y-131187461D01*
X150867167Y-131116244D01*
X150831559Y-131009419D01*
X150760342Y-130938203D01*
X150689125Y-130902594D01*
X150546692Y-130866986D01*
X150439867Y-130866986D01*
X150297433Y-130902594D01*
X150226216Y-130938203D01*
X150155000Y-131009419D01*
X150119391Y-131116244D01*
X150119391Y-131187461D01*
X150155000Y-131294286D01*
X150190608Y-131329895D01*
X150867167Y-132006454D02*
X150867167Y-131650370D01*
X150119391Y-131650370D01*
X150867167Y-132255713D02*
X150119391Y-132255713D01*
X150867167Y-132683013D02*
X150439867Y-132362538D01*
X150119391Y-132683013D02*
X150546692Y-132255713D01*
X104481615Y-109549182D02*
X104481615Y-110012091D01*
X104766482Y-109762832D01*
X104766482Y-109869657D01*
X104802091Y-109940874D01*
X104837699Y-109976482D01*
X104908916Y-110012091D01*
X105086958Y-110012091D01*
X105158174Y-109976482D01*
X105193783Y-109940874D01*
X105229391Y-109869657D01*
X105229391Y-109656007D01*
X105193783Y-109584790D01*
X105158174Y-109549182D01*
X104481615Y-110225741D02*
X105229391Y-110475000D01*
X104481615Y-110724258D01*
X104481615Y-110902300D02*
X104481615Y-111365209D01*
X104766482Y-111115950D01*
X104766482Y-111222776D01*
X104802091Y-111293992D01*
X104837699Y-111329601D01*
X104908916Y-111365209D01*
X105086958Y-111365209D01*
X105158174Y-111329601D01*
X105193783Y-111293992D01*
X105229391Y-111222776D01*
X105229391Y-111009125D01*
X105193783Y-110937908D01*
X105158174Y-110902300D01*
X140789391Y-109371140D02*
X140041615Y-109371140D01*
X140041615Y-109869657D02*
X140041615Y-110012091D01*
X140077224Y-110083307D01*
X140148440Y-110154524D01*
X140290874Y-110190132D01*
X140540132Y-110190132D01*
X140682566Y-110154524D01*
X140753783Y-110083307D01*
X140789391Y-110012091D01*
X140789391Y-109869657D01*
X140753783Y-109798440D01*
X140682566Y-109727224D01*
X140540132Y-109691615D01*
X140290874Y-109691615D01*
X140148440Y-109727224D01*
X140077224Y-109798440D01*
X140041615Y-109869657D01*
X140789391Y-110902300D02*
X140789391Y-110475000D01*
X140789391Y-110688650D02*
X140041615Y-110688650D01*
X140148440Y-110617433D01*
X140219657Y-110546216D01*
X140255265Y-110475000D01*
X140041615Y-111151559D02*
X140041615Y-111614468D01*
X140326482Y-111365209D01*
X140326482Y-111472034D01*
X140362091Y-111543251D01*
X140397699Y-111578859D01*
X140468916Y-111614468D01*
X140646958Y-111614468D01*
X140718174Y-111578859D01*
X140753783Y-111543251D01*
X140789391Y-111472034D01*
X140789391Y-111258384D01*
X140753783Y-111187167D01*
X140718174Y-111151559D01*
X150151615Y-109824566D02*
X150151615Y-109468482D01*
X150507699Y-109432874D01*
X150472091Y-109468482D01*
X150436482Y-109539699D01*
X150436482Y-109717741D01*
X150472091Y-109788958D01*
X150507699Y-109824566D01*
X150578916Y-109860174D01*
X150756958Y-109860174D01*
X150828174Y-109824566D01*
X150863783Y-109788958D01*
X150899391Y-109717741D01*
X150899391Y-109539699D01*
X150863783Y-109468482D01*
X150828174Y-109432874D01*
X150151615Y-110073825D02*
X150899391Y-110323083D01*
X150151615Y-110572342D01*
X117847167Y-130413140D02*
X117099391Y-130413140D01*
X117099391Y-130911657D02*
X117099391Y-131054091D01*
X117135000Y-131125307D01*
X117206216Y-131196524D01*
X117348650Y-131232132D01*
X117597908Y-131232132D01*
X117740342Y-131196524D01*
X117811559Y-131125307D01*
X117847167Y-131054091D01*
X117847167Y-130911657D01*
X117811559Y-130840440D01*
X117740342Y-130769224D01*
X117597908Y-130733615D01*
X117348650Y-130733615D01*
X117206216Y-130769224D01*
X117135000Y-130840440D01*
X117099391Y-130911657D01*
X117170608Y-131517000D02*
X117135000Y-131552608D01*
X117099391Y-131623825D01*
X117099391Y-131801867D01*
X117135000Y-131873083D01*
X117170608Y-131908692D01*
X117241825Y-131944300D01*
X117313041Y-131944300D01*
X117419867Y-131908692D01*
X117847167Y-131481391D01*
X117847167Y-131944300D01*
X117847167Y-132656468D02*
X117847167Y-132229167D01*
X117847167Y-132442817D02*
X117099391Y-132442817D01*
X117206216Y-132371601D01*
X117277433Y-132300384D01*
X117313041Y-132229167D01*
X138167167Y-130769224D02*
X137419391Y-130769224D01*
X137419391Y-131267741D02*
X137419391Y-131410174D01*
X137455000Y-131481391D01*
X137526216Y-131552608D01*
X137668650Y-131588216D01*
X137917908Y-131588216D01*
X138060342Y-131552608D01*
X138131559Y-131481391D01*
X138167167Y-131410174D01*
X138167167Y-131267741D01*
X138131559Y-131196524D01*
X138060342Y-131125307D01*
X137917908Y-131089699D01*
X137668650Y-131089699D01*
X137526216Y-131125307D01*
X137455000Y-131196524D01*
X137419391Y-131267741D01*
X137419391Y-132051125D02*
X137419391Y-132122342D01*
X137455000Y-132193559D01*
X137490608Y-132229167D01*
X137561825Y-132264776D01*
X137704258Y-132300384D01*
X137882300Y-132300384D01*
X138024734Y-132264776D01*
X138095950Y-132229167D01*
X138131559Y-132193559D01*
X138167167Y-132122342D01*
X138167167Y-132051125D01*
X138131559Y-131979908D01*
X138095950Y-131944300D01*
X138024734Y-131908692D01*
X137882300Y-131873083D01*
X137704258Y-131873083D01*
X137561825Y-131908692D01*
X137490608Y-131944300D01*
X137455000Y-131979908D01*
X137419391Y-132051125D01*
X133169391Y-109371140D02*
X132421615Y-109371140D01*
X132421615Y-109869657D02*
X132421615Y-110012091D01*
X132457224Y-110083307D01*
X132528440Y-110154524D01*
X132670874Y-110190132D01*
X132920132Y-110190132D01*
X133062566Y-110154524D01*
X133133783Y-110083307D01*
X133169391Y-110012091D01*
X133169391Y-109869657D01*
X133133783Y-109798440D01*
X133062566Y-109727224D01*
X132920132Y-109691615D01*
X132670874Y-109691615D01*
X132528440Y-109727224D01*
X132457224Y-109798440D01*
X132421615Y-109869657D01*
X133169391Y-110902300D02*
X133169391Y-110475000D01*
X133169391Y-110688650D02*
X132421615Y-110688650D01*
X132528440Y-110617433D01*
X132599657Y-110546216D01*
X132635265Y-110475000D01*
X132670874Y-111543251D02*
X133169391Y-111543251D01*
X132386007Y-111365209D02*
X132920132Y-111187167D01*
X132920132Y-111650076D01*
X120469391Y-109371140D02*
X119721615Y-109371140D01*
X119721615Y-109869657D02*
X119721615Y-110012091D01*
X119757224Y-110083307D01*
X119828440Y-110154524D01*
X119970874Y-110190132D01*
X120220132Y-110190132D01*
X120362566Y-110154524D01*
X120433783Y-110083307D01*
X120469391Y-110012091D01*
X120469391Y-109869657D01*
X120433783Y-109798440D01*
X120362566Y-109727224D01*
X120220132Y-109691615D01*
X119970874Y-109691615D01*
X119828440Y-109727224D01*
X119757224Y-109798440D01*
X119721615Y-109869657D01*
X119721615Y-110439391D02*
X119721615Y-110902300D01*
X120006482Y-110653041D01*
X120006482Y-110759867D01*
X120042091Y-110831083D01*
X120077699Y-110866692D01*
X120148916Y-110902300D01*
X120326958Y-110902300D01*
X120398174Y-110866692D01*
X120433783Y-110831083D01*
X120469391Y-110759867D01*
X120469391Y-110546216D01*
X120433783Y-110475000D01*
X120398174Y-110439391D01*
X119792832Y-111187167D02*
X119757224Y-111222776D01*
X119721615Y-111293992D01*
X119721615Y-111472034D01*
X119757224Y-111543251D01*
X119792832Y-111578859D01*
X119864049Y-111614468D01*
X119935265Y-111614468D01*
X120042091Y-111578859D01*
X120469391Y-111151559D01*
X120469391Y-111614468D01*
X125467167Y-130413140D02*
X124719391Y-130413140D01*
X124719391Y-130911657D02*
X124719391Y-131054091D01*
X124755000Y-131125307D01*
X124826216Y-131196524D01*
X124968650Y-131232132D01*
X125217908Y-131232132D01*
X125360342Y-131196524D01*
X125431559Y-131125307D01*
X125467167Y-131054091D01*
X125467167Y-130911657D01*
X125431559Y-130840440D01*
X125360342Y-130769224D01*
X125217908Y-130733615D01*
X124968650Y-130733615D01*
X124826216Y-130769224D01*
X124755000Y-130840440D01*
X124719391Y-130911657D01*
X125467167Y-131944300D02*
X125467167Y-131517000D01*
X125467167Y-131730650D02*
X124719391Y-131730650D01*
X124826216Y-131659433D01*
X124897433Y-131588216D01*
X124933041Y-131517000D01*
X125039867Y-132371601D02*
X125004258Y-132300384D01*
X124968650Y-132264776D01*
X124897433Y-132229167D01*
X124861825Y-132229167D01*
X124790608Y-132264776D01*
X124755000Y-132300384D01*
X124719391Y-132371601D01*
X124719391Y-132514034D01*
X124755000Y-132585251D01*
X124790608Y-132620859D01*
X124861825Y-132656468D01*
X124897433Y-132656468D01*
X124968650Y-132620859D01*
X125004258Y-132585251D01*
X125039867Y-132514034D01*
X125039867Y-132371601D01*
X125075475Y-132300384D01*
X125111083Y-132264776D01*
X125182300Y-132229167D01*
X125324734Y-132229167D01*
X125395950Y-132264776D01*
X125431559Y-132300384D01*
X125467167Y-132371601D01*
X125467167Y-132514034D01*
X125431559Y-132585251D01*
X125395950Y-132620859D01*
X125324734Y-132656468D01*
X125182300Y-132656468D01*
X125111083Y-132620859D01*
X125075475Y-132585251D01*
X125039867Y-132514034D01*
X128007167Y-130769224D02*
X127259391Y-130769224D01*
X127259391Y-131267741D02*
X127259391Y-131410174D01*
X127295000Y-131481391D01*
X127366216Y-131552608D01*
X127508650Y-131588216D01*
X127757908Y-131588216D01*
X127900342Y-131552608D01*
X127971559Y-131481391D01*
X128007167Y-131410174D01*
X128007167Y-131267741D01*
X127971559Y-131196524D01*
X127900342Y-131125307D01*
X127757908Y-131089699D01*
X127508650Y-131089699D01*
X127366216Y-131125307D01*
X127295000Y-131196524D01*
X127259391Y-131267741D01*
X127259391Y-132264776D02*
X127259391Y-131908692D01*
X127615475Y-131873083D01*
X127579867Y-131908692D01*
X127544258Y-131979908D01*
X127544258Y-132157950D01*
X127579867Y-132229167D01*
X127615475Y-132264776D01*
X127686692Y-132300384D01*
X127864734Y-132300384D01*
X127935950Y-132264776D01*
X127971559Y-132229167D01*
X128007167Y-132157950D01*
X128007167Y-131979908D01*
X127971559Y-131908692D01*
X127935950Y-131873083D01*
D10*
G04 #@! TO.C,SW3*
X108325238Y-88703333D02*
X108277619Y-88560476D01*
X108277619Y-88322380D01*
X108325238Y-88227142D01*
X108372857Y-88179523D01*
X108468095Y-88131904D01*
X108563333Y-88131904D01*
X108658571Y-88179523D01*
X108706190Y-88227142D01*
X108753809Y-88322380D01*
X108801428Y-88512857D01*
X108849047Y-88608095D01*
X108896666Y-88655714D01*
X108991904Y-88703333D01*
X109087142Y-88703333D01*
X109182380Y-88655714D01*
X109230000Y-88608095D01*
X109277619Y-88512857D01*
X109277619Y-88274761D01*
X109230000Y-88131904D01*
X109277619Y-87798571D02*
X108277619Y-87560476D01*
X108991904Y-87370000D01*
X108277619Y-87179523D01*
X109277619Y-86941428D01*
X109277619Y-86655714D02*
X109277619Y-86036666D01*
X108896666Y-86370000D01*
X108896666Y-86227142D01*
X108849047Y-86131904D01*
X108801428Y-86084285D01*
X108706190Y-86036666D01*
X108468095Y-86036666D01*
X108372857Y-86084285D01*
X108325238Y-86131904D01*
X108277619Y-86227142D01*
X108277619Y-86512857D01*
X108325238Y-86608095D01*
X108372857Y-86655714D01*
D12*
G04 #@! TO.C,U5*
X187535769Y-71055961D02*
X187535769Y-72001809D01*
X187480131Y-72113085D01*
X187424493Y-72168723D01*
X187313217Y-72224361D01*
X187090664Y-72224361D01*
X186979388Y-72168723D01*
X186923750Y-72113085D01*
X186868112Y-72001809D01*
X186868112Y-71055961D01*
X185755350Y-71055961D02*
X186311731Y-71055961D01*
X186367369Y-71612342D01*
X186311731Y-71556704D01*
X186200455Y-71501066D01*
X185922264Y-71501066D01*
X185810988Y-71556704D01*
X185755350Y-71612342D01*
X185699712Y-71723619D01*
X185699712Y-72001809D01*
X185755350Y-72113085D01*
X185810988Y-72168723D01*
X185922264Y-72224361D01*
X186200455Y-72224361D01*
X186311731Y-72168723D01*
X186367369Y-72113085D01*
G04 #@! TO.C,X2*
X103250961Y-100975350D02*
X104419361Y-101754283D01*
X103250961Y-101754283D02*
X104419361Y-100975350D01*
X103362238Y-102143750D02*
X103306600Y-102199388D01*
X103250961Y-102310664D01*
X103250961Y-102588855D01*
X103306600Y-102700131D01*
X103362238Y-102755769D01*
X103473514Y-102811407D01*
X103584790Y-102811407D01*
X103751704Y-102755769D01*
X104419361Y-102088112D01*
X104419361Y-102811407D01*
G04 #@! TO.C,U9*
X184680769Y-130295961D02*
X184680769Y-131241809D01*
X184625131Y-131353085D01*
X184569493Y-131408723D01*
X184458217Y-131464361D01*
X184235664Y-131464361D01*
X184124388Y-131408723D01*
X184068750Y-131353085D01*
X184013112Y-131241809D01*
X184013112Y-130295961D01*
X183401093Y-131464361D02*
X183178540Y-131464361D01*
X183067264Y-131408723D01*
X183011626Y-131353085D01*
X182900350Y-131186171D01*
X182844712Y-130963619D01*
X182844712Y-130518514D01*
X182900350Y-130407238D01*
X182955988Y-130351600D01*
X183067264Y-130295961D01*
X183289817Y-130295961D01*
X183401093Y-130351600D01*
X183456731Y-130407238D01*
X183512369Y-130518514D01*
X183512369Y-130796704D01*
X183456731Y-130907980D01*
X183401093Y-130963619D01*
X183289817Y-131019257D01*
X183067264Y-131019257D01*
X182955988Y-130963619D01*
X182900350Y-130907980D01*
X182844712Y-130796704D01*
D10*
G04 #@! TO.C,SW7*
X111775238Y-98233333D02*
X111727619Y-98090476D01*
X111727619Y-97852380D01*
X111775238Y-97757142D01*
X111822857Y-97709523D01*
X111918095Y-97661904D01*
X112013333Y-97661904D01*
X112108571Y-97709523D01*
X112156190Y-97757142D01*
X112203809Y-97852380D01*
X112251428Y-98042857D01*
X112299047Y-98138095D01*
X112346666Y-98185714D01*
X112441904Y-98233333D01*
X112537142Y-98233333D01*
X112632380Y-98185714D01*
X112680000Y-98138095D01*
X112727619Y-98042857D01*
X112727619Y-97804761D01*
X112680000Y-97661904D01*
X112727619Y-97328571D02*
X111727619Y-97090476D01*
X112441904Y-96900000D01*
X111727619Y-96709523D01*
X112727619Y-96471428D01*
X112727619Y-96185714D02*
X112727619Y-95519047D01*
X111727619Y-95947619D01*
G04 #@! TO.C,J27*
X165567380Y-106885476D02*
X166281666Y-106885476D01*
X166424523Y-106837857D01*
X166519761Y-106742619D01*
X166567380Y-106599761D01*
X166567380Y-106504523D01*
X165662619Y-107314047D02*
X165615000Y-107361666D01*
X165567380Y-107456904D01*
X165567380Y-107695000D01*
X165615000Y-107790238D01*
X165662619Y-107837857D01*
X165757857Y-107885476D01*
X165853095Y-107885476D01*
X165995952Y-107837857D01*
X166567380Y-107266428D01*
X166567380Y-107885476D01*
X165567380Y-108218809D02*
X165567380Y-108885476D01*
X166567380Y-108456904D01*
G04 #@! TO.C,SW12*
X101395714Y-136138571D02*
X101352857Y-136010000D01*
X101352857Y-135795714D01*
X101395714Y-135710000D01*
X101438571Y-135667142D01*
X101524285Y-135624285D01*
X101610000Y-135624285D01*
X101695714Y-135667142D01*
X101738571Y-135710000D01*
X101781428Y-135795714D01*
X101824285Y-135967142D01*
X101867142Y-136052857D01*
X101910000Y-136095714D01*
X101995714Y-136138571D01*
X102081428Y-136138571D01*
X102167142Y-136095714D01*
X102210000Y-136052857D01*
X102252857Y-135967142D01*
X102252857Y-135752857D01*
X102210000Y-135624285D01*
X102252857Y-135324285D02*
X101352857Y-135110000D01*
X101995714Y-134938571D01*
X101352857Y-134767142D01*
X102252857Y-134552857D01*
X101352857Y-133738571D02*
X101352857Y-134252857D01*
X101352857Y-133995714D02*
X102252857Y-133995714D01*
X102124285Y-134081428D01*
X102038571Y-134167142D01*
X101995714Y-134252857D01*
X102167142Y-133395714D02*
X102210000Y-133352857D01*
X102252857Y-133267142D01*
X102252857Y-133052857D01*
X102210000Y-132967142D01*
X102167142Y-132924285D01*
X102081428Y-132881428D01*
X101995714Y-132881428D01*
X101867142Y-132924285D01*
X101352857Y-133438571D01*
X101352857Y-132881428D01*
D13*
G04 #@! TO.C,X3*
X194002571Y-87845835D02*
X195145571Y-88607835D01*
X194002571Y-88607835D02*
X195145571Y-87845835D01*
X194002571Y-88934407D02*
X194002571Y-89641978D01*
X194438000Y-89260978D01*
X194438000Y-89424264D01*
X194492428Y-89533121D01*
X194546857Y-89587550D01*
X194655714Y-89641978D01*
X194927857Y-89641978D01*
X195036714Y-89587550D01*
X195091142Y-89533121D01*
X195145571Y-89424264D01*
X195145571Y-89097692D01*
X195091142Y-88988835D01*
X195036714Y-88934407D01*
D10*
G04 #@! TO.C,J7*
X108047380Y-144821666D02*
X108761666Y-144821666D01*
X108904523Y-144774047D01*
X108999761Y-144678809D01*
X109047380Y-144535952D01*
X109047380Y-144440714D01*
X108047380Y-145202619D02*
X108047380Y-145869285D01*
X109047380Y-145440714D01*
D12*
G04 #@! TO.C,U8*
X188029649Y-118410961D02*
X188029649Y-119356809D01*
X187974011Y-119468085D01*
X187918373Y-119523723D01*
X187807097Y-119579361D01*
X187584544Y-119579361D01*
X187473268Y-119523723D01*
X187417630Y-119468085D01*
X187361992Y-119356809D01*
X187361992Y-118410961D01*
X186638697Y-118911704D02*
X186749973Y-118856066D01*
X186805611Y-118800428D01*
X186861249Y-118689152D01*
X186861249Y-118633514D01*
X186805611Y-118522238D01*
X186749973Y-118466600D01*
X186638697Y-118410961D01*
X186416144Y-118410961D01*
X186304868Y-118466600D01*
X186249230Y-118522238D01*
X186193592Y-118633514D01*
X186193592Y-118689152D01*
X186249230Y-118800428D01*
X186304868Y-118856066D01*
X186416144Y-118911704D01*
X186638697Y-118911704D01*
X186749973Y-118967342D01*
X186805611Y-119022980D01*
X186861249Y-119134257D01*
X186861249Y-119356809D01*
X186805611Y-119468085D01*
X186749973Y-119523723D01*
X186638697Y-119579361D01*
X186416144Y-119579361D01*
X186304868Y-119523723D01*
X186249230Y-119468085D01*
X186193592Y-119356809D01*
X186193592Y-119134257D01*
X186249230Y-119022980D01*
X186304868Y-118967342D01*
X186416144Y-118911704D01*
X188288592Y-119344361D02*
X188956249Y-119344361D01*
X188622420Y-119344361D02*
X188622420Y-118175961D01*
X188733697Y-118342876D01*
X188844973Y-118454152D01*
X188956249Y-118509790D01*
D10*
G04 #@! TO.C,C41*
X161632857Y-56147142D02*
X161680476Y-56194761D01*
X161823333Y-56242380D01*
X161918571Y-56242380D01*
X162061428Y-56194761D01*
X162156666Y-56099523D01*
X162204285Y-56004285D01*
X162251904Y-55813809D01*
X162251904Y-55670952D01*
X162204285Y-55480476D01*
X162156666Y-55385238D01*
X162061428Y-55290000D01*
X161918571Y-55242380D01*
X161823333Y-55242380D01*
X161680476Y-55290000D01*
X161632857Y-55337619D01*
X160775714Y-55575714D02*
X160775714Y-56242380D01*
X161013809Y-55194761D02*
X161251904Y-55909047D01*
X160632857Y-55909047D01*
X159728095Y-56242380D02*
X160299523Y-56242380D01*
X160013809Y-56242380D02*
X160013809Y-55242380D01*
X160109047Y-55385238D01*
X160204285Y-55480476D01*
X160299523Y-55528095D01*
G04 #@! TO.C,SW10*
X121155238Y-79654523D02*
X121107619Y-79511666D01*
X121107619Y-79273571D01*
X121155238Y-79178333D01*
X121202857Y-79130714D01*
X121298095Y-79083095D01*
X121393333Y-79083095D01*
X121488571Y-79130714D01*
X121536190Y-79178333D01*
X121583809Y-79273571D01*
X121631428Y-79464047D01*
X121679047Y-79559285D01*
X121726666Y-79606904D01*
X121821904Y-79654523D01*
X121917142Y-79654523D01*
X122012380Y-79606904D01*
X122060000Y-79559285D01*
X122107619Y-79464047D01*
X122107619Y-79225952D01*
X122060000Y-79083095D01*
X122107619Y-78749761D02*
X121107619Y-78511666D01*
X121821904Y-78321190D01*
X121107619Y-78130714D01*
X122107619Y-77892619D01*
X121107619Y-76987857D02*
X121107619Y-77559285D01*
X121107619Y-77273571D02*
X122107619Y-77273571D01*
X121964761Y-77368809D01*
X121869523Y-77464047D01*
X121821904Y-77559285D01*
X122107619Y-76368809D02*
X122107619Y-76273571D01*
X122060000Y-76178333D01*
X122012380Y-76130714D01*
X121917142Y-76083095D01*
X121726666Y-76035476D01*
X121488571Y-76035476D01*
X121298095Y-76083095D01*
X121202857Y-76130714D01*
X121155238Y-76178333D01*
X121107619Y-76273571D01*
X121107619Y-76368809D01*
X121155238Y-76464047D01*
X121202857Y-76511666D01*
X121298095Y-76559285D01*
X121488571Y-76606904D01*
X121726666Y-76606904D01*
X121917142Y-76559285D01*
X122012380Y-76511666D01*
X122060000Y-76464047D01*
X122107619Y-76368809D01*
G04 #@! TO.C,C45*
X149647857Y-56162142D02*
X149695476Y-56209761D01*
X149838333Y-56257380D01*
X149933571Y-56257380D01*
X150076428Y-56209761D01*
X150171666Y-56114523D01*
X150219285Y-56019285D01*
X150266904Y-55828809D01*
X150266904Y-55685952D01*
X150219285Y-55495476D01*
X150171666Y-55400238D01*
X150076428Y-55305000D01*
X149933571Y-55257380D01*
X149838333Y-55257380D01*
X149695476Y-55305000D01*
X149647857Y-55352619D01*
X148790714Y-55590714D02*
X148790714Y-56257380D01*
X149028809Y-55209761D02*
X149266904Y-55924047D01*
X148647857Y-55924047D01*
X147790714Y-55257380D02*
X148266904Y-55257380D01*
X148314523Y-55733571D01*
X148266904Y-55685952D01*
X148171666Y-55638333D01*
X147933571Y-55638333D01*
X147838333Y-55685952D01*
X147790714Y-55733571D01*
X147743095Y-55828809D01*
X147743095Y-56066904D01*
X147790714Y-56162142D01*
X147838333Y-56209761D01*
X147933571Y-56257380D01*
X148171666Y-56257380D01*
X148266904Y-56209761D01*
X148314523Y-56162142D01*
D13*
G04 #@! TO.C,X1*
X193902571Y-100745835D02*
X195045571Y-101507835D01*
X193902571Y-101507835D02*
X195045571Y-100745835D01*
X195045571Y-102541978D02*
X195045571Y-101888835D01*
X195045571Y-102215407D02*
X193902571Y-102215407D01*
X194065857Y-102106550D01*
X194174714Y-101997692D01*
X194229142Y-101888835D01*
D10*
G04 #@! TO.C,SW1*
X121270238Y-88713333D02*
X121222619Y-88570476D01*
X121222619Y-88332380D01*
X121270238Y-88237142D01*
X121317857Y-88189523D01*
X121413095Y-88141904D01*
X121508333Y-88141904D01*
X121603571Y-88189523D01*
X121651190Y-88237142D01*
X121698809Y-88332380D01*
X121746428Y-88522857D01*
X121794047Y-88618095D01*
X121841666Y-88665714D01*
X121936904Y-88713333D01*
X122032142Y-88713333D01*
X122127380Y-88665714D01*
X122175000Y-88618095D01*
X122222619Y-88522857D01*
X122222619Y-88284761D01*
X122175000Y-88141904D01*
X122222619Y-87808571D02*
X121222619Y-87570476D01*
X121936904Y-87380000D01*
X121222619Y-87189523D01*
X122222619Y-86951428D01*
X121222619Y-86046666D02*
X121222619Y-86618095D01*
X121222619Y-86332380D02*
X122222619Y-86332380D01*
X122079761Y-86427619D01*
X121984523Y-86522857D01*
X121936904Y-86618095D01*
G04 #@! TO.C,B1*
X109599761Y-121023571D02*
X109456904Y-121071190D01*
X109409285Y-121118809D01*
X109361666Y-121214047D01*
X109361666Y-121356904D01*
X109409285Y-121452142D01*
X109456904Y-121499761D01*
X109552142Y-121547380D01*
X109933095Y-121547380D01*
X109933095Y-120547380D01*
X109599761Y-120547380D01*
X109504523Y-120595000D01*
X109456904Y-120642619D01*
X109409285Y-120737857D01*
X109409285Y-120833095D01*
X109456904Y-120928333D01*
X109504523Y-120975952D01*
X109599761Y-121023571D01*
X109933095Y-121023571D01*
X108409285Y-121547380D02*
X108980714Y-121547380D01*
X108695000Y-121547380D02*
X108695000Y-120547380D01*
X108790238Y-120690238D01*
X108885476Y-120785476D01*
X108980714Y-120833095D01*
D12*
G04 #@! TO.C,U4*
X187259649Y-59310961D02*
X187259649Y-60256809D01*
X187204011Y-60368085D01*
X187148373Y-60423723D01*
X187037097Y-60479361D01*
X186814544Y-60479361D01*
X186703268Y-60423723D01*
X186647630Y-60368085D01*
X186591992Y-60256809D01*
X186591992Y-59310961D01*
X185534868Y-59700428D02*
X185534868Y-60479361D01*
X185813059Y-59255323D02*
X186091249Y-60089895D01*
X185367954Y-60089895D01*
X192788692Y-59054461D02*
X193456349Y-59054461D01*
X193122520Y-59054461D02*
X193122520Y-57886061D01*
X193233797Y-58052976D01*
X193345073Y-58164252D01*
X193456349Y-58219890D01*
D10*
G04 #@! TO.C,SW5*
X111745238Y-79181533D02*
X111697619Y-79038676D01*
X111697619Y-78800580D01*
X111745238Y-78705342D01*
X111792857Y-78657723D01*
X111888095Y-78610104D01*
X111983333Y-78610104D01*
X112078571Y-78657723D01*
X112126190Y-78705342D01*
X112173809Y-78800580D01*
X112221428Y-78991057D01*
X112269047Y-79086295D01*
X112316666Y-79133914D01*
X112411904Y-79181533D01*
X112507142Y-79181533D01*
X112602380Y-79133914D01*
X112650000Y-79086295D01*
X112697619Y-78991057D01*
X112697619Y-78752961D01*
X112650000Y-78610104D01*
X112697619Y-78276771D02*
X111697619Y-78038676D01*
X112411904Y-77848200D01*
X111697619Y-77657723D01*
X112697619Y-77419628D01*
X112697619Y-76562485D02*
X112697619Y-77038676D01*
X112221428Y-77086295D01*
X112269047Y-77038676D01*
X112316666Y-76943438D01*
X112316666Y-76705342D01*
X112269047Y-76610104D01*
X112221428Y-76562485D01*
X112126190Y-76514866D01*
X111888095Y-76514866D01*
X111792857Y-76562485D01*
X111745238Y-76610104D01*
X111697619Y-76705342D01*
X111697619Y-76943438D01*
X111745238Y-77038676D01*
X111792857Y-77086295D01*
G04 #@! TO.C,C58*
X176112857Y-130247142D02*
X176160476Y-130294761D01*
X176303333Y-130342380D01*
X176398571Y-130342380D01*
X176541428Y-130294761D01*
X176636666Y-130199523D01*
X176684285Y-130104285D01*
X176731904Y-129913809D01*
X176731904Y-129770952D01*
X176684285Y-129580476D01*
X176636666Y-129485238D01*
X176541428Y-129390000D01*
X176398571Y-129342380D01*
X176303333Y-129342380D01*
X176160476Y-129390000D01*
X176112857Y-129437619D01*
X175208095Y-129342380D02*
X175684285Y-129342380D01*
X175731904Y-129818571D01*
X175684285Y-129770952D01*
X175589047Y-129723333D01*
X175350952Y-129723333D01*
X175255714Y-129770952D01*
X175208095Y-129818571D01*
X175160476Y-129913809D01*
X175160476Y-130151904D01*
X175208095Y-130247142D01*
X175255714Y-130294761D01*
X175350952Y-130342380D01*
X175589047Y-130342380D01*
X175684285Y-130294761D01*
X175731904Y-130247142D01*
X174589047Y-129770952D02*
X174684285Y-129723333D01*
X174731904Y-129675714D01*
X174779523Y-129580476D01*
X174779523Y-129532857D01*
X174731904Y-129437619D01*
X174684285Y-129390000D01*
X174589047Y-129342380D01*
X174398571Y-129342380D01*
X174303333Y-129390000D01*
X174255714Y-129437619D01*
X174208095Y-129532857D01*
X174208095Y-129580476D01*
X174255714Y-129675714D01*
X174303333Y-129723333D01*
X174398571Y-129770952D01*
X174589047Y-129770952D01*
X174684285Y-129818571D01*
X174731904Y-129866190D01*
X174779523Y-129961428D01*
X174779523Y-130151904D01*
X174731904Y-130247142D01*
X174684285Y-130294761D01*
X174589047Y-130342380D01*
X174398571Y-130342380D01*
X174303333Y-130294761D01*
X174255714Y-130247142D01*
X174208095Y-130151904D01*
X174208095Y-129961428D01*
X174255714Y-129866190D01*
X174303333Y-129818571D01*
X174398571Y-129770952D01*
D14*
G04 #@! TO.C,D48*
X180035000Y-57515000D02*
X180035000Y-58985000D01*
X177750000Y-57515000D02*
X180035000Y-57515000D01*
X180035000Y-58985000D02*
X177750000Y-58985000D01*
G04 #@! TO.C,J22*
X129915000Y-143835000D02*
X129915000Y-145165000D01*
X132515000Y-143835000D02*
X140195000Y-143835000D01*
X132515000Y-143835000D02*
X132515000Y-146495000D01*
X132515000Y-146495000D02*
X140195000Y-146495000D01*
X140195000Y-143835000D02*
X140195000Y-146495000D01*
X131245000Y-143835000D02*
X129915000Y-143835000D01*
D13*
G04 #@! TO.C,JP11*
X190830000Y-138310000D02*
X193030000Y-138310000D01*
X190830000Y-130410000D02*
X190830000Y-138310000D01*
X191430000Y-137710000D02*
X193030000Y-137710000D01*
X193930000Y-131010000D02*
X194730000Y-131010000D01*
X193930000Y-138310000D02*
X195330000Y-138310000D01*
X190830000Y-130410000D02*
X193030000Y-130410000D01*
X194730000Y-131010000D02*
X194730000Y-133410000D01*
X193930000Y-130410000D02*
X195330000Y-130410000D01*
X194730000Y-135310000D02*
X194730000Y-137710000D01*
X193030000Y-130410000D02*
X193930000Y-130410000D01*
X193030000Y-137710000D02*
X193930000Y-137710000D01*
X193030000Y-138310000D02*
X193930000Y-138310000D01*
X195330000Y-135310000D02*
X195330000Y-138310000D01*
X194730000Y-135310000D02*
X195330000Y-135310000D01*
X191430000Y-131010000D02*
X193030000Y-131010000D01*
X193930000Y-137710000D02*
X194730000Y-137710000D01*
X193930000Y-130410000D02*
X193930000Y-131010000D01*
X195330000Y-133410000D02*
X195330000Y-135310000D01*
X194730000Y-133410000D02*
X195330000Y-133410000D01*
X193930000Y-137710000D02*
X193930000Y-138310000D01*
X191430000Y-131010000D02*
X191430000Y-137710000D01*
X193030000Y-130410000D02*
X193030000Y-131010000D01*
X195330000Y-130410000D02*
X195330000Y-133410000D01*
X193030000Y-131010000D02*
X193930000Y-131010000D01*
X193030000Y-137710000D02*
X193030000Y-138310000D01*
D14*
G04 #@! TO.C,C49*
X128195563Y-51535000D02*
X129260000Y-52599437D01*
X120740000Y-60055000D02*
X123790000Y-60055000D01*
X120740000Y-52599437D02*
X120740000Y-60055000D01*
X128195563Y-51535000D02*
X126210000Y-51535000D01*
X121804437Y-51535000D02*
X123790000Y-51535000D01*
X129260000Y-52599437D02*
X129260000Y-60055000D01*
X122790000Y-50295000D02*
X122790000Y-51295000D01*
X121804437Y-51535000D02*
X120740000Y-52599437D01*
X122290000Y-50795000D02*
X123290000Y-50795000D01*
X129260000Y-60055000D02*
X126210000Y-60055000D01*
G04 #@! TO.C,J12*
X150235000Y-141285000D02*
X150235000Y-142615000D01*
X165595000Y-141285000D02*
X165595000Y-143945000D01*
X151565000Y-141285000D02*
X150235000Y-141285000D01*
X152835000Y-141285000D02*
X152835000Y-143945000D01*
X152835000Y-143945000D02*
X165595000Y-143945000D01*
X152835000Y-141285000D02*
X165595000Y-141285000D01*
G04 #@! TO.C,D44*
X176840000Y-100549500D02*
X175370000Y-100549500D01*
X175370000Y-100549500D02*
X175370000Y-98264500D01*
X176840000Y-98264500D02*
X176840000Y-100549500D01*
G04 #@! TO.C,J4*
X166268200Y-55623200D02*
X166268200Y-56953200D01*
X168868200Y-54353200D02*
X168868200Y-56953200D01*
X166268200Y-54353200D02*
X168868200Y-54353200D01*
X166268200Y-56953200D02*
X167598200Y-56953200D01*
X166268200Y-46673200D02*
X171468200Y-46673200D01*
X171468200Y-56953200D02*
X171468200Y-46673200D01*
X168868200Y-56953200D02*
X171468200Y-56953200D01*
X166268200Y-54353200D02*
X166268200Y-46673200D01*
G04 #@! TO.C,C53*
X134290000Y-50800000D02*
X135290000Y-50800000D01*
X141260000Y-60060000D02*
X138210000Y-60060000D01*
X134790000Y-50300000D02*
X134790000Y-51300000D01*
X132740000Y-60060000D02*
X135790000Y-60060000D01*
X133804437Y-51540000D02*
X135790000Y-51540000D01*
X132740000Y-52604437D02*
X132740000Y-60060000D01*
X140195563Y-51540000D02*
X138210000Y-51540000D01*
X141260000Y-52604437D02*
X141260000Y-60060000D01*
X133804437Y-51540000D02*
X132740000Y-52604437D01*
X140195563Y-51540000D02*
X141260000Y-52604437D01*
G04 #@! TO.C,J15*
X168170000Y-143945000D02*
X173310000Y-143945000D01*
X168170000Y-141285000D02*
X168170000Y-143945000D01*
X165570000Y-141285000D02*
X165570000Y-142615000D01*
X168170000Y-141285000D02*
X173310000Y-141285000D01*
X173310000Y-141285000D02*
X173310000Y-143945000D01*
X166900000Y-141285000D02*
X165570000Y-141285000D01*
D15*
G04 #@! TO.C,SW14*
X108948200Y-84873200D02*
X111948200Y-84873200D01*
X107948200Y-88873200D02*
X108948200Y-89873200D01*
X108948200Y-89873200D02*
X111948200Y-89873200D01*
X112948200Y-88873200D02*
X112948200Y-85873200D01*
X107948200Y-88873200D02*
X107948200Y-85873200D01*
X108948200Y-84873200D02*
X107948200Y-85873200D01*
X111948200Y-84873200D02*
X112948200Y-85873200D01*
X112948200Y-88873200D02*
X111948200Y-89873200D01*
D16*
X111448200Y-87373200D02*
G75*
G03*
X111448200Y-87373200I-1000000J0D01*
G01*
D14*
G04 #@! TO.C,J33*
X98865000Y-54925000D02*
X106545000Y-54925000D01*
X96265000Y-57525000D02*
X96265000Y-60125000D01*
X96265000Y-54925000D02*
X96265000Y-56255000D01*
X106545000Y-54925000D02*
X106545000Y-60125000D01*
X98865000Y-57525000D02*
X96265000Y-57525000D01*
X97595000Y-54925000D02*
X96265000Y-54925000D01*
X96265000Y-60125000D02*
X106545000Y-60125000D01*
X98865000Y-54925000D02*
X98865000Y-57525000D01*
D13*
G04 #@! TO.C,IM3*
X103595000Y-107025000D02*
X103595000Y-112025000D01*
X96795000Y-112025000D02*
X96795000Y-130025000D01*
X96795000Y-130025000D02*
X103595000Y-130025000D01*
X103595000Y-112025000D02*
X96795000Y-112025000D01*
X103595000Y-135025000D02*
X151795000Y-135025000D01*
X151795000Y-107025000D02*
X103595000Y-107025000D01*
X151795000Y-135025000D02*
X151795000Y-107025000D01*
X103595000Y-112025000D02*
X103595000Y-130025000D01*
X103595000Y-130025000D02*
X103595000Y-135025000D01*
D14*
G04 #@! TO.C,J11*
X140175550Y-136205000D02*
X140175550Y-137535000D01*
X141505550Y-136205000D02*
X140175550Y-136205000D01*
X142775550Y-138865000D02*
X147915550Y-138865000D01*
X142775550Y-136205000D02*
X142775550Y-138865000D01*
X142775550Y-136205000D02*
X147915550Y-136205000D01*
X147915550Y-136205000D02*
X147915550Y-138865000D01*
G04 #@! TO.C,J39*
X126500000Y-49330000D02*
X127830000Y-49330000D01*
X125230000Y-46670000D02*
X120090000Y-46670000D01*
X125230000Y-49330000D02*
X120090000Y-49330000D01*
X120090000Y-49330000D02*
X120090000Y-46670000D01*
X125230000Y-49330000D02*
X125230000Y-46670000D01*
X127830000Y-49330000D02*
X127830000Y-48000000D01*
G04 #@! TO.C,J20*
X173304450Y-143828200D02*
X173304450Y-146488200D01*
X168164450Y-143828200D02*
X173304450Y-143828200D01*
X168164450Y-146488200D02*
X173304450Y-146488200D01*
X168164450Y-143828200D02*
X168164450Y-146488200D01*
X165564450Y-143828200D02*
X165564450Y-145158200D01*
X166894450Y-143828200D02*
X165564450Y-143828200D01*
G04 #@! TO.C,D46*
X185115000Y-57515000D02*
X185115000Y-58985000D01*
X185115000Y-58985000D02*
X182830000Y-58985000D01*
X182830000Y-57515000D02*
X185115000Y-57515000D01*
G04 #@! TO.C,J31*
X97585000Y-60005000D02*
X96255000Y-60005000D01*
X96255000Y-65205000D02*
X106535000Y-65205000D01*
X96255000Y-62605000D02*
X96255000Y-65205000D01*
X98855000Y-60005000D02*
X98855000Y-62605000D01*
X96255000Y-60005000D02*
X96255000Y-61335000D01*
X106535000Y-60005000D02*
X106535000Y-65205000D01*
X98855000Y-62605000D02*
X96255000Y-62605000D01*
X98855000Y-60005000D02*
X106535000Y-60005000D01*
G04 #@! TO.C,J24*
X170195000Y-106475000D02*
X170195000Y-105145000D01*
X168865000Y-106475000D02*
X170195000Y-106475000D01*
X154835000Y-106475000D02*
X154835000Y-103815000D01*
X167595000Y-106475000D02*
X167595000Y-103815000D01*
X167595000Y-106475000D02*
X154835000Y-106475000D01*
X167595000Y-103815000D02*
X154835000Y-103815000D01*
G04 #@! TO.C,J30*
X96255000Y-65085000D02*
X96255000Y-66415000D01*
X98855000Y-67685000D02*
X96255000Y-67685000D01*
X96255000Y-70285000D02*
X106535000Y-70285000D01*
X106535000Y-65085000D02*
X106535000Y-70285000D01*
X97585000Y-65085000D02*
X96255000Y-65085000D01*
X98855000Y-65085000D02*
X106535000Y-65085000D01*
X96255000Y-67685000D02*
X96255000Y-70285000D01*
X98855000Y-65085000D02*
X98855000Y-67685000D01*
G04 #@! TO.C,J46*
X185915000Y-136205000D02*
X185915000Y-138865000D01*
X178235000Y-136205000D02*
X178235000Y-138865000D01*
X176965000Y-136205000D02*
X175635000Y-136205000D01*
X178235000Y-136205000D02*
X185915000Y-136205000D01*
X175635000Y-136205000D02*
X175635000Y-137535000D01*
X178235000Y-138865000D02*
X185915000Y-138865000D01*
G04 #@! TO.C,J50*
X167815000Y-121665000D02*
X167815000Y-120335000D01*
X167815000Y-120335000D02*
X166485000Y-120335000D01*
X167815000Y-130615000D02*
X165155000Y-130615000D01*
X167815000Y-122935000D02*
X167815000Y-130615000D01*
X165155000Y-122935000D02*
X165155000Y-130615000D01*
X167815000Y-122935000D02*
X165155000Y-122935000D01*
G04 #@! TO.C,J34*
X144105000Y-103825000D02*
X151785000Y-103825000D01*
X151785000Y-103825000D02*
X151785000Y-106485000D01*
X144105000Y-103825000D02*
X144105000Y-106485000D01*
X144105000Y-106485000D02*
X151785000Y-106485000D01*
X141505000Y-103825000D02*
X141505000Y-105155000D01*
X142835000Y-103825000D02*
X141505000Y-103825000D01*
D15*
G04 #@! TO.C,SW3*
X103423200Y-85873200D02*
X103423200Y-88873200D01*
X102423200Y-84873200D02*
X99423200Y-84873200D01*
X98423200Y-85873200D02*
X99423200Y-84873200D01*
X103423200Y-85873200D02*
X102423200Y-84873200D01*
X99423200Y-89873200D02*
X98423200Y-88873200D01*
X98423200Y-85873200D02*
X98423200Y-88873200D01*
X102423200Y-89873200D02*
X99423200Y-89873200D01*
X102423200Y-89873200D02*
X103423200Y-88873200D01*
D16*
X101923200Y-87373200D02*
G75*
G03*
X101923200Y-87373200I-1000000J0D01*
G01*
D14*
G04 #@! TO.C,J21*
X110440000Y-49330000D02*
X105300000Y-49330000D01*
X105300000Y-49330000D02*
X105300000Y-46670000D01*
X113040000Y-49330000D02*
X113040000Y-48000000D01*
X110440000Y-46670000D02*
X105300000Y-46670000D01*
X111710000Y-49330000D02*
X113040000Y-49330000D01*
X110440000Y-49330000D02*
X110440000Y-46670000D01*
G04 #@! TO.C,J10*
X127610000Y-143825000D02*
X127610000Y-146485000D01*
X121200000Y-143825000D02*
X119870000Y-143825000D01*
X122470000Y-146485000D02*
X127610000Y-146485000D01*
X119870000Y-143825000D02*
X119870000Y-145155000D01*
X122470000Y-143825000D02*
X122470000Y-146485000D01*
X122470000Y-143825000D02*
X127610000Y-143825000D01*
D13*
G04 #@! TO.C,U5*
X191550000Y-70060000D02*
X191550000Y-70660000D01*
X191550000Y-70660000D02*
X183650000Y-70660000D01*
X180650000Y-68360000D02*
X180650000Y-69260000D01*
X181250000Y-69260000D02*
X181250000Y-70060000D01*
X194550000Y-66160000D02*
X194550000Y-68360000D01*
X194550000Y-69260000D02*
X194550000Y-70660000D01*
X194550000Y-70660000D02*
X191550000Y-70660000D01*
X193950000Y-69260000D02*
X193950000Y-70060000D01*
X194550000Y-69260000D02*
X193950000Y-69260000D01*
X193950000Y-66760000D02*
X181250000Y-66760000D01*
X180650000Y-69260000D02*
X180650000Y-70660000D01*
X193950000Y-66760000D02*
X193950000Y-68360000D01*
X193950000Y-70060000D02*
X191550000Y-70060000D01*
X194550000Y-68360000D02*
X193950000Y-68360000D01*
X194550000Y-66160000D02*
X180650000Y-66160000D01*
X180650000Y-66160000D02*
X180650000Y-68360000D01*
X181250000Y-68360000D02*
X180650000Y-68360000D01*
X194550000Y-68360000D02*
X194550000Y-69260000D01*
X181250000Y-66760000D02*
X181250000Y-68360000D01*
X181250000Y-69260000D02*
X180650000Y-69260000D01*
X183650000Y-70060000D02*
X181250000Y-70060000D01*
X183650000Y-70660000D02*
X180650000Y-70660000D01*
X183650000Y-70060000D02*
X183650000Y-70660000D01*
X193950000Y-68360000D02*
X193950000Y-69260000D01*
X181250000Y-68360000D02*
X181250000Y-69260000D01*
D14*
G04 #@! TO.C,J18*
X152835000Y-143825000D02*
X152835000Y-146485000D01*
X150235000Y-143825000D02*
X150235000Y-145155000D01*
X165595000Y-143825000D02*
X165595000Y-146485000D01*
X152835000Y-143825000D02*
X165595000Y-143825000D01*
X152835000Y-146485000D02*
X165595000Y-146485000D01*
X151565000Y-143825000D02*
X150235000Y-143825000D01*
G04 #@! TO.C,J23*
X142770000Y-146488200D02*
X147910000Y-146488200D01*
X147910000Y-143828200D02*
X147910000Y-146488200D01*
X141500000Y-143828200D02*
X140170000Y-143828200D01*
X142770000Y-143828200D02*
X147910000Y-143828200D01*
X142770000Y-143828200D02*
X142770000Y-146488200D01*
X140170000Y-143828200D02*
X140170000Y-145158200D01*
G04 #@! TO.C,D42*
X175330000Y-100550000D02*
X173860000Y-100550000D01*
X175330000Y-98265000D02*
X175330000Y-100550000D01*
X173860000Y-100550000D02*
X173860000Y-98265000D01*
G04 #@! TO.C,J1*
X119275000Y-97535000D02*
X121875000Y-97535000D01*
X121875000Y-100135000D02*
X124475000Y-100135000D01*
X124475000Y-100135000D02*
X124475000Y-94935000D01*
X119275000Y-100135000D02*
X120605000Y-100135000D01*
X121875000Y-97535000D02*
X121875000Y-100135000D01*
X119275000Y-97535000D02*
X119275000Y-94935000D01*
X119275000Y-98805000D02*
X119275000Y-100135000D01*
X119275000Y-94935000D02*
X124475000Y-94935000D01*
G04 #@! TO.C,J28*
X108545000Y-101285000D02*
X121305000Y-101285000D01*
X121305000Y-101285000D02*
X121305000Y-103945000D01*
X108545000Y-101285000D02*
X108545000Y-103945000D01*
X107275000Y-101285000D02*
X105945000Y-101285000D01*
X108545000Y-103945000D02*
X121305000Y-103945000D01*
X105945000Y-101285000D02*
X105945000Y-102615000D01*
G04 #@! TO.C,J16*
X121200550Y-141285000D02*
X119870550Y-141285000D01*
X122470550Y-141285000D02*
X122470550Y-143945000D01*
X127610550Y-141285000D02*
X127610550Y-143945000D01*
X122470550Y-143945000D02*
X127610550Y-143945000D01*
X122470550Y-141285000D02*
X127610550Y-141285000D01*
X119870550Y-141285000D02*
X119870550Y-142615000D01*
G04 #@! TO.C,J32*
X164995000Y-109025000D02*
X164995000Y-106365000D01*
X167595000Y-106365000D02*
X164995000Y-106365000D01*
X167595000Y-109025000D02*
X164995000Y-109025000D01*
X168865000Y-109025000D02*
X170195000Y-109025000D01*
X170195000Y-109025000D02*
X170195000Y-107695000D01*
X167595000Y-109025000D02*
X167595000Y-106365000D01*
D17*
G04 #@! TO.C,X2*
X99605700Y-109043200D02*
X100355700Y-109043200D01*
X99605700Y-111593200D02*
X101605700Y-111593200D01*
X99605700Y-91093200D02*
X99605700Y-92393200D01*
X99605700Y-110293200D02*
X99605700Y-111593200D01*
X101605700Y-91093200D02*
X99605700Y-91093200D01*
X100355700Y-93643200D02*
X99605700Y-93643200D01*
X100355700Y-109043200D02*
X100355700Y-93643200D01*
G36*
X100147281Y-110643200D02*
G01*
X99771081Y-110894000D01*
X99604900Y-110894000D01*
X99604900Y-110392400D01*
X99771081Y-110392400D01*
X100147281Y-110643200D01*
G37*
D14*
G04 #@! TO.C,J41*
X175635000Y-143835000D02*
X175635000Y-145165000D01*
X185915000Y-143835000D02*
X185915000Y-146495000D01*
X178235000Y-143835000D02*
X185915000Y-143835000D01*
X178235000Y-146495000D02*
X185915000Y-146495000D01*
X176965000Y-143835000D02*
X175635000Y-143835000D01*
X178235000Y-143835000D02*
X178235000Y-146495000D01*
G04 #@! TO.C,D39*
X97528942Y-107476352D02*
X97528942Y-109761352D01*
X96058942Y-107476352D02*
X97528942Y-107476352D01*
X96058942Y-109761352D02*
X96058942Y-107476352D01*
D13*
G04 #@! TO.C,U9*
X180650000Y-127420000D02*
X180650000Y-128320000D01*
X194550000Y-128320000D02*
X194550000Y-129720000D01*
X194550000Y-128320000D02*
X193950000Y-128320000D01*
X181250000Y-127420000D02*
X181250000Y-128320000D01*
X194550000Y-127420000D02*
X193950000Y-127420000D01*
X194550000Y-125220000D02*
X180650000Y-125220000D01*
X180650000Y-128320000D02*
X180650000Y-129720000D01*
X193950000Y-128320000D02*
X193950000Y-129120000D01*
X194550000Y-129720000D02*
X191550000Y-129720000D01*
X181250000Y-127420000D02*
X180650000Y-127420000D01*
X181250000Y-128320000D02*
X181250000Y-129120000D01*
X183650000Y-129720000D02*
X180650000Y-129720000D01*
X183650000Y-129120000D02*
X181250000Y-129120000D01*
X181250000Y-125820000D02*
X181250000Y-127420000D01*
X191550000Y-129720000D02*
X183650000Y-129720000D01*
X191550000Y-129120000D02*
X191550000Y-129720000D01*
X194550000Y-127420000D02*
X194550000Y-128320000D01*
X183650000Y-129120000D02*
X183650000Y-129720000D01*
X181250000Y-128320000D02*
X180650000Y-128320000D01*
X193950000Y-129120000D02*
X191550000Y-129120000D01*
X193950000Y-125820000D02*
X193950000Y-127420000D01*
X194550000Y-125220000D02*
X194550000Y-127420000D01*
X180650000Y-125220000D02*
X180650000Y-127420000D01*
X193950000Y-125820000D02*
X181250000Y-125820000D01*
X193950000Y-127420000D02*
X193950000Y-128320000D01*
D14*
G04 #@! TO.C,J45*
X176965000Y-138745000D02*
X175635000Y-138745000D01*
X178235000Y-141405000D02*
X185915000Y-141405000D01*
X178235000Y-138745000D02*
X178235000Y-141405000D01*
X178235000Y-138745000D02*
X185915000Y-138745000D01*
X175635000Y-138745000D02*
X175635000Y-140075000D01*
X185915000Y-138745000D02*
X185915000Y-141405000D01*
G04 #@! TO.C,J37*
X161230000Y-46670000D02*
X156090000Y-46670000D01*
X163830000Y-49330000D02*
X163830000Y-48000000D01*
X162500000Y-49330000D02*
X163830000Y-49330000D01*
X161230000Y-49330000D02*
X156090000Y-49330000D01*
X161230000Y-49330000D02*
X161230000Y-46670000D01*
X156090000Y-49330000D02*
X156090000Y-46670000D01*
G04 #@! TO.C,J2*
X176428200Y-54353200D02*
X176428200Y-46673200D01*
X176428200Y-54353200D02*
X179028200Y-54353200D01*
X176428200Y-55623200D02*
X176428200Y-56953200D01*
X176428200Y-46673200D02*
X181628200Y-46673200D01*
X181628200Y-56953200D02*
X181628200Y-46673200D01*
X176428200Y-56953200D02*
X177758200Y-56953200D01*
X179028200Y-56953200D02*
X181628200Y-56953200D01*
X179028200Y-54353200D02*
X179028200Y-56953200D01*
G04 #@! TO.C,J42*
X98855000Y-70165000D02*
X106535000Y-70165000D01*
X97585000Y-70165000D02*
X96255000Y-70165000D01*
X96255000Y-75365000D02*
X106535000Y-75365000D01*
X98855000Y-72765000D02*
X96255000Y-72765000D01*
X96255000Y-70165000D02*
X96255000Y-71495000D01*
X106535000Y-70165000D02*
X106535000Y-75365000D01*
X98855000Y-70165000D02*
X98855000Y-72765000D01*
X96255000Y-72765000D02*
X96255000Y-75365000D01*
D15*
G04 #@! TO.C,SW7*
X108948200Y-99398200D02*
X107948200Y-98398200D01*
X112948200Y-95398200D02*
X111948200Y-94398200D01*
X111948200Y-99398200D02*
X112948200Y-98398200D01*
X107948200Y-95398200D02*
X108948200Y-94398200D01*
X111948200Y-99398200D02*
X108948200Y-99398200D01*
X112948200Y-95398200D02*
X112948200Y-98398200D01*
X111948200Y-94398200D02*
X108948200Y-94398200D01*
X107948200Y-95398200D02*
X107948200Y-98398200D01*
D16*
X111448200Y-96898200D02*
G75*
G03*
X111448200Y-96898200I-1000000J0D01*
G01*
D14*
G04 #@! TO.C,J27*
X165115000Y-109025000D02*
X165115000Y-107695000D01*
X163785000Y-109025000D02*
X165115000Y-109025000D01*
X162515000Y-106365000D02*
X154835000Y-106365000D01*
X162515000Y-109025000D02*
X162515000Y-106365000D01*
X162515000Y-109025000D02*
X154835000Y-109025000D01*
X154835000Y-109025000D02*
X154835000Y-106365000D01*
G04 #@! TO.C,J38*
X149230000Y-49330000D02*
X144090000Y-49330000D01*
X149230000Y-49330000D02*
X149230000Y-46670000D01*
X150500000Y-49330000D02*
X151830000Y-49330000D01*
X144090000Y-49330000D02*
X144090000Y-46670000D01*
X151830000Y-49330000D02*
X151830000Y-48000000D01*
X149230000Y-46670000D02*
X144090000Y-46670000D01*
D15*
G04 #@! TO.C,SW12*
X101629450Y-137021950D02*
X102629450Y-136021950D01*
X101629450Y-137021950D02*
X98629450Y-137021950D01*
X98629450Y-137021950D02*
X97629450Y-136021950D01*
X101629450Y-132021950D02*
X98629450Y-132021950D01*
X102629450Y-133021950D02*
X102629450Y-136021950D01*
X97629450Y-133021950D02*
X98629450Y-132021950D01*
X97629450Y-133021950D02*
X97629450Y-136021950D01*
X102629450Y-133021950D02*
X101629450Y-132021950D01*
D16*
X101129450Y-134521950D02*
G75*
G03*
X101129450Y-134521950I-1000000J0D01*
G01*
D14*
G04 #@! TO.C,D33*
X96058942Y-94521352D02*
X96058942Y-92236352D01*
X96058942Y-92236352D02*
X97528942Y-92236352D01*
X97528942Y-92236352D02*
X97528942Y-94521352D01*
G04 #@! TO.C,J5*
X151565000Y-138745000D02*
X150235000Y-138745000D01*
X152835000Y-141405000D02*
X165595000Y-141405000D01*
X152835000Y-138745000D02*
X165595000Y-138745000D01*
X152835000Y-138745000D02*
X152835000Y-141405000D01*
X165595000Y-138745000D02*
X165595000Y-141405000D01*
X150235000Y-138745000D02*
X150235000Y-140075000D01*
G04 #@! TO.C,D30*
X172670000Y-57515000D02*
X174955000Y-57515000D01*
X174955000Y-58985000D02*
X172670000Y-58985000D01*
X174955000Y-57515000D02*
X174955000Y-58985000D01*
G04 #@! TO.C,J3*
X171348200Y-54353200D02*
X173948200Y-54353200D01*
X173948200Y-54353200D02*
X173948200Y-56953200D01*
X171348200Y-56953200D02*
X172678200Y-56953200D01*
X171348200Y-54353200D02*
X171348200Y-46673200D01*
X173948200Y-56953200D02*
X176548200Y-56953200D01*
X171348200Y-55623200D02*
X171348200Y-56953200D01*
X171348200Y-46673200D02*
X176548200Y-46673200D01*
X176548200Y-56953200D02*
X176548200Y-46673200D01*
D16*
G04 #@! TO.C,X3*
X186774000Y-81100000D02*
X186520000Y-81100000D01*
X195791000Y-81100000D02*
X193378000Y-81100000D01*
X193378000Y-89609000D02*
X193378000Y-92911000D01*
X186774000Y-96340000D02*
X193378000Y-96340000D01*
X193378000Y-84529000D02*
X193378000Y-87831000D01*
X193378000Y-96340000D02*
X195791000Y-96340000D01*
X186774000Y-96340000D02*
X186774000Y-81100000D01*
X193378000Y-81100000D02*
X193378000Y-82751000D01*
X186520000Y-81100000D02*
X186520000Y-96340000D01*
X193378000Y-81100000D02*
X186774000Y-81100000D01*
X193378000Y-94689000D02*
X193378000Y-96340000D01*
X186774000Y-96340000D02*
X186520000Y-96340000D01*
X195791000Y-81100000D02*
X195791000Y-96340000D01*
X188628200Y-93800000D02*
G75*
G03*
X188628200Y-93800000I-508000J0D01*
G01*
X188628200Y-83640000D02*
G75*
G03*
X188628200Y-83640000I-508000J0D01*
G01*
X188628200Y-88720000D02*
G75*
G03*
X188628200Y-88720000I-508000J0D01*
G01*
D14*
G04 #@! TO.C,BAT1*
X143115000Y-129025000D02*
X143115000Y-125025000D01*
X146115000Y-119225000D02*
X146115000Y-117025000D01*
X143115000Y-113025000D02*
X121115000Y-113025000D01*
X121115000Y-129025000D02*
X143115000Y-129025000D01*
X141115000Y-121025000D02*
X143115000Y-121025000D01*
X146115000Y-125025000D02*
X146115000Y-122825000D01*
X121115000Y-125025000D02*
X121115000Y-129025000D01*
X146115000Y-117025000D02*
X143015000Y-117025000D01*
X118115000Y-122825000D02*
X118115000Y-125025000D01*
X121115000Y-113025000D02*
X121115000Y-117025000D01*
X118115000Y-125025000D02*
X121115000Y-125025000D01*
X143115000Y-125025000D02*
X146115000Y-125025000D01*
X143015000Y-117025000D02*
X143115000Y-113025000D01*
X121115000Y-117025000D02*
X118115000Y-117025000D01*
X147765000Y-119275000D02*
X146115000Y-119225000D01*
X147765000Y-122775000D02*
X147765000Y-119275000D01*
X146115000Y-122825000D02*
X147765000Y-122775000D01*
X116465000Y-119275000D02*
X116465000Y-122775000D01*
X142115000Y-122025000D02*
X142115000Y-120025000D01*
X118115000Y-117025000D02*
X118115000Y-119225000D01*
X116465000Y-122775000D02*
X118115000Y-122825000D01*
X118115000Y-119225000D02*
X116465000Y-119275000D01*
G04 #@! TO.C,D37*
X96058942Y-102396352D02*
X97528942Y-102396352D01*
X96058942Y-104681352D02*
X96058942Y-102396352D01*
X97528942Y-102396352D02*
X97528942Y-104681352D01*
G04 #@! TO.C,J7*
X112195000Y-146485000D02*
X119875000Y-146485000D01*
X119875000Y-143825000D02*
X119875000Y-146485000D01*
X110925000Y-143825000D02*
X109595000Y-143825000D01*
X112195000Y-143825000D02*
X112195000Y-146485000D01*
X109595000Y-143825000D02*
X109595000Y-145155000D01*
X112195000Y-143825000D02*
X119875000Y-143825000D01*
D13*
G04 #@! TO.C,U8*
X181250000Y-121360000D02*
X181250000Y-120560000D01*
X180650000Y-124460000D02*
X194550000Y-124460000D01*
X193950000Y-121360000D02*
X193950000Y-120560000D01*
X180650000Y-122260000D02*
X181250000Y-122260000D01*
X194550000Y-124460000D02*
X194550000Y-122260000D01*
X180650000Y-124460000D02*
X180650000Y-122260000D01*
X183650000Y-120560000D02*
X183650000Y-119960000D01*
X193950000Y-121360000D02*
X194550000Y-121360000D01*
X191550000Y-120560000D02*
X193950000Y-120560000D01*
X180650000Y-121360000D02*
X181250000Y-121360000D01*
X193950000Y-122260000D02*
X193950000Y-121360000D01*
X180650000Y-119960000D02*
X183650000Y-119960000D01*
X194550000Y-122260000D02*
X194550000Y-121360000D01*
X181250000Y-123860000D02*
X181250000Y-122260000D01*
X181250000Y-123860000D02*
X193950000Y-123860000D01*
X194550000Y-121360000D02*
X194550000Y-119960000D01*
X181250000Y-120560000D02*
X183650000Y-120560000D01*
X183650000Y-119960000D02*
X191550000Y-119960000D01*
X191550000Y-120560000D02*
X191550000Y-119960000D01*
X193950000Y-122260000D02*
X194550000Y-122260000D01*
X193950000Y-123860000D02*
X193950000Y-122260000D01*
X180650000Y-121360000D02*
X180650000Y-119960000D01*
X191550000Y-119960000D02*
X194550000Y-119960000D01*
X180650000Y-122260000D02*
X180650000Y-121360000D01*
X181250000Y-122260000D02*
X181250000Y-121360000D01*
D14*
G04 #@! TO.C,C41*
X158790000Y-50300000D02*
X158790000Y-51300000D01*
X165260000Y-52604437D02*
X165260000Y-60060000D01*
X158290000Y-50800000D02*
X159290000Y-50800000D01*
X164195563Y-51540000D02*
X162210000Y-51540000D01*
X156740000Y-60060000D02*
X159790000Y-60060000D01*
X165260000Y-60060000D02*
X162210000Y-60060000D01*
X164195563Y-51540000D02*
X165260000Y-52604437D01*
X157804437Y-51540000D02*
X156740000Y-52604437D01*
X156740000Y-52604437D02*
X156740000Y-60060000D01*
X157804437Y-51540000D02*
X159790000Y-51540000D01*
G04 #@! TO.C,J47*
X109595000Y-136205000D02*
X109595000Y-137535000D01*
X110925000Y-136205000D02*
X109595000Y-136205000D01*
X119875000Y-136205000D02*
X119875000Y-138865000D01*
X112195000Y-136205000D02*
X119875000Y-136205000D01*
X112195000Y-136205000D02*
X112195000Y-138865000D01*
X112195000Y-138865000D02*
X119875000Y-138865000D01*
G04 #@! TO.C,J13*
X110925000Y-141285000D02*
X109595000Y-141285000D01*
X109595000Y-141285000D02*
X109595000Y-142615000D01*
X112195000Y-141285000D02*
X112195000Y-143945000D01*
X112195000Y-143945000D02*
X119875000Y-143945000D01*
X112195000Y-141285000D02*
X119875000Y-141285000D01*
X119875000Y-141285000D02*
X119875000Y-143945000D01*
D15*
G04 #@! TO.C,SW10*
X117473200Y-76348200D02*
X118473200Y-75348200D01*
X117473200Y-76348200D02*
X117473200Y-79348200D01*
X122473200Y-76348200D02*
X122473200Y-79348200D01*
X122473200Y-76348200D02*
X121473200Y-75348200D01*
X121473200Y-75348200D02*
X118473200Y-75348200D01*
X121473200Y-80348200D02*
X122473200Y-79348200D01*
X118473200Y-80348200D02*
X117473200Y-79348200D01*
X121473200Y-80348200D02*
X118473200Y-80348200D01*
D16*
X120973200Y-77848200D02*
G75*
G03*
X120973200Y-77848200I-1000000J0D01*
G01*
D14*
G04 #@! TO.C,C45*
X152195563Y-51540000D02*
X153260000Y-52604437D01*
X144740000Y-52604437D02*
X144740000Y-60060000D01*
X144740000Y-60060000D02*
X147790000Y-60060000D01*
X153260000Y-60060000D02*
X150210000Y-60060000D01*
X146290000Y-50800000D02*
X147290000Y-50800000D01*
X146790000Y-50300000D02*
X146790000Y-51300000D01*
X153260000Y-52604437D02*
X153260000Y-60060000D01*
X145804437Y-51540000D02*
X147790000Y-51540000D01*
X152195563Y-51540000D02*
X150210000Y-51540000D01*
X145804437Y-51540000D02*
X144740000Y-52604437D01*
G04 #@! TO.C,D32*
X97535000Y-78295000D02*
X96065000Y-78295000D01*
X97535000Y-76010000D02*
X97535000Y-78295000D01*
X96065000Y-78295000D02*
X96065000Y-76010000D01*
G04 #@! TO.C,D27*
X96065000Y-83285000D02*
X96065000Y-81000000D01*
X97535000Y-81000000D02*
X97535000Y-83285000D01*
X97535000Y-83285000D02*
X96065000Y-83285000D01*
G04 #@! TO.C,J14*
X147910000Y-138748200D02*
X147910000Y-141408200D01*
X141500000Y-138748200D02*
X140170000Y-138748200D01*
X142770000Y-138748200D02*
X147910000Y-138748200D01*
X142770000Y-141408200D02*
X147910000Y-141408200D01*
X142770000Y-138748200D02*
X142770000Y-141408200D01*
X140170000Y-138748200D02*
X140170000Y-140078200D01*
G04 #@! TO.C,J17*
X132515000Y-143955000D02*
X140195000Y-143955000D01*
X131245000Y-141295000D02*
X129915000Y-141295000D01*
X129915000Y-141295000D02*
X129915000Y-142625000D01*
X132515000Y-141295000D02*
X140195000Y-141295000D01*
X140195000Y-141295000D02*
X140195000Y-143955000D01*
X132515000Y-141295000D02*
X132515000Y-143955000D01*
G04 #@! TO.C,J40*
X137230000Y-46670000D02*
X132090000Y-46670000D01*
X137230000Y-49330000D02*
X132090000Y-49330000D01*
X138500000Y-49330000D02*
X139830000Y-49330000D01*
X139830000Y-49330000D02*
X139830000Y-48000000D01*
X137230000Y-49330000D02*
X137230000Y-46670000D01*
X132090000Y-49330000D02*
X132090000Y-46670000D01*
D16*
G04 #@! TO.C,X1*
X193382500Y-104849000D02*
X193382500Y-106500000D01*
X186524500Y-96340000D02*
X186524500Y-106500000D01*
X193382500Y-99769000D02*
X193382500Y-103071000D01*
X195795500Y-106500000D02*
X193382500Y-106500000D01*
X186778500Y-96340000D02*
X186778500Y-106500000D01*
X195795500Y-106500000D02*
X195795500Y-96340000D01*
X193382500Y-96340000D02*
X195795500Y-96340000D01*
X193382500Y-106500000D02*
X186778500Y-106500000D01*
X186778500Y-96340000D02*
X186524500Y-96340000D01*
X193382500Y-96340000D02*
X193382500Y-97991000D01*
X186778500Y-96340000D02*
X193382500Y-96340000D01*
X186778500Y-106500000D02*
X186524500Y-106500000D01*
X188632700Y-103960000D02*
G75*
G03*
X188632700Y-103960000I-508000J0D01*
G01*
X188632700Y-98880000D02*
G75*
G03*
X188632700Y-98880000I-508000J0D01*
G01*
D14*
G04 #@! TO.C,J19*
X141500000Y-141288200D02*
X140170000Y-141288200D01*
X140170000Y-141288200D02*
X140170000Y-142618200D01*
X142770000Y-141288200D02*
X142770000Y-143948200D01*
X142770000Y-141288200D02*
X147910000Y-141288200D01*
X147910000Y-141288200D02*
X147910000Y-143948200D01*
X142770000Y-143948200D02*
X147910000Y-143948200D01*
G04 #@! TO.C,J9*
X132515000Y-136205000D02*
X132515000Y-138865000D01*
X132515000Y-138865000D02*
X140195000Y-138865000D01*
X132515000Y-136205000D02*
X140195000Y-136205000D01*
X140195000Y-136205000D02*
X140195000Y-138865000D01*
X131245000Y-136205000D02*
X129915000Y-136205000D01*
X129915000Y-136205000D02*
X129915000Y-137535000D01*
D15*
G04 #@! TO.C,SW1*
X117473200Y-85873200D02*
X118473200Y-84873200D01*
X121473200Y-84873200D02*
X118473200Y-84873200D01*
X122473200Y-85873200D02*
X121473200Y-84873200D01*
X122473200Y-85873200D02*
X122473200Y-88873200D01*
X117473200Y-85873200D02*
X117473200Y-88873200D01*
X121473200Y-89873200D02*
X118473200Y-89873200D01*
X118473200Y-89873200D02*
X117473200Y-88873200D01*
X121473200Y-89873200D02*
X122473200Y-88873200D01*
D16*
X120973200Y-87373200D02*
G75*
G03*
X120973200Y-87373200I-1000000J0D01*
G01*
D14*
G04 #@! TO.C,J49*
X167658200Y-93733200D02*
X167658200Y-92403200D01*
X167658200Y-102683200D02*
X164998200Y-102683200D01*
X164998200Y-95003200D02*
X164998200Y-102683200D01*
X167658200Y-95003200D02*
X167658200Y-102683200D01*
X167658200Y-92403200D02*
X166328200Y-92403200D01*
X167658200Y-95003200D02*
X164998200Y-95003200D01*
G04 #@! TO.C,J43*
X178235000Y-141285000D02*
X185915000Y-141285000D01*
X176965000Y-141285000D02*
X175635000Y-141285000D01*
X185915000Y-141285000D02*
X185915000Y-143945000D01*
X178235000Y-143945000D02*
X185915000Y-143945000D01*
X175635000Y-141285000D02*
X175635000Y-142615000D01*
X178235000Y-141285000D02*
X178235000Y-143945000D01*
D16*
G04 #@! TO.C,B1*
X108543200Y-119798200D02*
X107908200Y-119163200D01*
X108543200Y-124794200D02*
X107908200Y-124159200D01*
X110448200Y-119163200D02*
X110448200Y-117893200D01*
X109813200Y-124794200D02*
X108543200Y-124794200D01*
X110448200Y-124159200D02*
X109813200Y-124794200D01*
X109813200Y-117258200D02*
X108543200Y-117258200D01*
X110448200Y-119163200D02*
X109813200Y-119798200D01*
X108543200Y-122254200D02*
X107908200Y-122889200D01*
X110448200Y-117893200D02*
X109813200Y-117258200D01*
X109813200Y-122254200D02*
X108543200Y-122254200D01*
X107908200Y-122889200D02*
X107908200Y-124159200D01*
X107908200Y-117893200D02*
X107908200Y-119163200D01*
X110448200Y-122889200D02*
X109813200Y-122254200D01*
X108543200Y-117258200D02*
X107908200Y-117893200D01*
X110448200Y-124159200D02*
X110448200Y-122889200D01*
X109813200Y-119798200D02*
X108543200Y-119798200D01*
X113678200Y-121028200D02*
G75*
G03*
X113678200Y-121028200I-4500000J0D01*
G01*
X110974250Y-118528200D02*
G75*
G03*
X110974250Y-118528200I-1796050J0D01*
G01*
D14*
G04 #@! TO.C,C74*
X178104437Y-100760000D02*
X180090000Y-100760000D01*
X177040000Y-92240000D02*
X180090000Y-92240000D01*
X183510000Y-102000000D02*
X183510000Y-101000000D01*
X184010000Y-101500000D02*
X183010000Y-101500000D01*
X185560000Y-99695563D02*
X185560000Y-92240000D01*
X177040000Y-99695563D02*
X177040000Y-92240000D01*
X184495563Y-100760000D02*
X182510000Y-100760000D01*
X178104437Y-100760000D02*
X177040000Y-99695563D01*
X185560000Y-92240000D02*
X182510000Y-92240000D01*
X184495563Y-100760000D02*
X185560000Y-99695563D01*
G04 #@! TO.C,J8*
X173300000Y-138745000D02*
X173300000Y-141405000D01*
X166890000Y-138745000D02*
X165560000Y-138745000D01*
X165560000Y-138745000D02*
X165560000Y-140075000D01*
X168160000Y-138745000D02*
X173300000Y-138745000D01*
X168160000Y-138745000D02*
X168160000Y-141405000D01*
X168160000Y-141405000D02*
X173300000Y-141405000D01*
G04 #@! TO.C,J25*
X157435000Y-108920000D02*
X170195000Y-108920000D01*
X154835000Y-108920000D02*
X154835000Y-110250000D01*
X157435000Y-108920000D02*
X157435000Y-111580000D01*
X170195000Y-108920000D02*
X170195000Y-111580000D01*
X157435000Y-111580000D02*
X170195000Y-111580000D01*
X156165000Y-108920000D02*
X154835000Y-108920000D01*
D13*
G04 #@! TO.C,U4*
X191550000Y-60910000D02*
X194550000Y-60910000D01*
X183650000Y-61510000D02*
X183650000Y-60910000D01*
X191550000Y-61510000D02*
X191550000Y-60910000D01*
X180650000Y-63210000D02*
X181250000Y-63210000D01*
X180650000Y-62310000D02*
X180650000Y-60910000D01*
X180650000Y-60910000D02*
X183650000Y-60910000D01*
X193950000Y-63210000D02*
X193950000Y-62310000D01*
X181250000Y-61510000D02*
X183650000Y-61510000D01*
X193950000Y-62310000D02*
X194550000Y-62310000D01*
X180650000Y-63210000D02*
X180650000Y-62310000D01*
X183650000Y-60910000D02*
X191550000Y-60910000D01*
X193950000Y-62310000D02*
X193950000Y-61510000D01*
X180650000Y-65410000D02*
X194550000Y-65410000D01*
X194550000Y-62310000D02*
X194550000Y-60910000D01*
X181250000Y-62310000D02*
X181250000Y-61510000D01*
X194550000Y-63210000D02*
X194550000Y-62310000D01*
X181250000Y-64810000D02*
X181250000Y-63210000D01*
X181250000Y-64810000D02*
X193950000Y-64810000D01*
X193950000Y-64810000D02*
X193950000Y-63210000D01*
X180650000Y-65410000D02*
X180650000Y-63210000D01*
X194550000Y-65410000D02*
X194550000Y-63210000D01*
X193950000Y-63210000D02*
X194550000Y-63210000D01*
X180650000Y-62310000D02*
X181250000Y-62310000D01*
X191550000Y-61510000D02*
X193950000Y-61510000D01*
X181250000Y-63210000D02*
X181250000Y-62310000D01*
G04 #@! TO.C,JP10*
X188270000Y-131010000D02*
X189170000Y-131010000D01*
X188270000Y-130410000D02*
X188270000Y-131010000D01*
X188270000Y-138310000D02*
X189170000Y-138310000D01*
X189970000Y-135310000D02*
X189970000Y-137710000D01*
X189170000Y-130410000D02*
X190570000Y-130410000D01*
X189970000Y-135310000D02*
X190570000Y-135310000D01*
X189170000Y-137710000D02*
X189170000Y-138310000D01*
X189170000Y-130410000D02*
X189170000Y-131010000D01*
X186670000Y-131010000D02*
X188270000Y-131010000D01*
X189170000Y-138310000D02*
X190570000Y-138310000D01*
X188270000Y-137710000D02*
X189170000Y-137710000D01*
X188270000Y-137710000D02*
X188270000Y-138310000D01*
X186070000Y-138310000D02*
X188270000Y-138310000D01*
X186070000Y-130410000D02*
X186070000Y-138310000D01*
X186670000Y-137710000D02*
X188270000Y-137710000D01*
X190570000Y-130410000D02*
X190570000Y-133410000D01*
X186670000Y-131010000D02*
X186670000Y-137710000D01*
X190570000Y-135310000D02*
X190570000Y-138310000D01*
X189970000Y-133410000D02*
X190570000Y-133410000D01*
X188270000Y-130410000D02*
X189170000Y-130410000D01*
X189170000Y-137710000D02*
X189970000Y-137710000D01*
X189970000Y-131010000D02*
X189970000Y-133410000D01*
X186070000Y-130410000D02*
X188270000Y-130410000D01*
X190570000Y-133410000D02*
X190570000Y-135310000D01*
X189170000Y-131010000D02*
X189970000Y-131010000D01*
D15*
G04 #@! TO.C,SW5*
X112948200Y-76348200D02*
X112948200Y-79348200D01*
X111948200Y-75348200D02*
X108948200Y-75348200D01*
X107948200Y-76348200D02*
X108948200Y-75348200D01*
X108948200Y-80348200D02*
X107948200Y-79348200D01*
X111948200Y-80348200D02*
X112948200Y-79348200D01*
X107948200Y-76348200D02*
X107948200Y-79348200D01*
X111948200Y-80348200D02*
X108948200Y-80348200D01*
X112948200Y-76348200D02*
X111948200Y-75348200D01*
D16*
X111448200Y-77848200D02*
G75*
G03*
X111448200Y-77848200I-1000000J0D01*
G01*
D14*
G04 #@! TO.C,J26*
X121305000Y-103825000D02*
X121305000Y-106485000D01*
X108545000Y-103825000D02*
X121305000Y-103825000D01*
X105945000Y-103825000D02*
X105945000Y-105155000D01*
X108545000Y-106485000D02*
X121305000Y-106485000D01*
X107275000Y-103825000D02*
X105945000Y-103825000D01*
X108545000Y-103825000D02*
X108545000Y-106485000D01*
G04 #@! TO.C,J44*
X119875000Y-138745000D02*
X119875000Y-141405000D01*
X109595000Y-138745000D02*
X109595000Y-140075000D01*
X112195000Y-138745000D02*
X112195000Y-141405000D01*
X112195000Y-138745000D02*
X119875000Y-138745000D01*
X112195000Y-141405000D02*
X119875000Y-141405000D01*
X110925000Y-138745000D02*
X109595000Y-138745000D01*
G04 #@! TO.C,D35*
X96060700Y-97318200D02*
X97530700Y-97318200D01*
X97530700Y-97318200D02*
X97530700Y-99603200D01*
X96060700Y-99603200D02*
X96060700Y-97318200D01*
G04 #@! TO.C,J48*
X184108200Y-56953200D02*
X186708200Y-56953200D01*
X184108200Y-54353200D02*
X184108200Y-56953200D01*
X181508200Y-56953200D02*
X182838200Y-56953200D01*
X181508200Y-46673200D02*
X186708200Y-46673200D01*
X181508200Y-55623200D02*
X181508200Y-56953200D01*
X186708200Y-56953200D02*
X186708200Y-46673200D01*
X181508200Y-54353200D02*
X181508200Y-46673200D01*
X181508200Y-54353200D02*
X184108200Y-54353200D01*
G04 #@! TO.C,J6*
X131245000Y-138745000D02*
X129915000Y-138745000D01*
X132515000Y-141405000D02*
X140195000Y-141405000D01*
X132515000Y-138745000D02*
X132515000Y-141405000D01*
X132515000Y-138745000D02*
X140195000Y-138745000D01*
X129915000Y-138745000D02*
X129915000Y-140075000D01*
X140195000Y-138745000D02*
X140195000Y-141405000D01*
G04 #@! TO.C,C58*
X172404437Y-134160000D02*
X171340000Y-133095563D01*
X171340000Y-133095563D02*
X171340000Y-125640000D01*
X172404437Y-134160000D02*
X174390000Y-134160000D01*
X178310000Y-134900000D02*
X177310000Y-134900000D01*
X179860000Y-133095563D02*
X179860000Y-125640000D01*
X178795563Y-134160000D02*
X179860000Y-133095563D01*
X179860000Y-125640000D02*
X176810000Y-125640000D01*
X178795563Y-134160000D02*
X176810000Y-134160000D01*
X177810000Y-135400000D02*
X177810000Y-134400000D01*
X171340000Y-125640000D02*
X174390000Y-125640000D01*
G04 #@! TD*
M02*
