G04 #@! TF.GenerationSoftware,KiCad,Pcbnew,6.0.2+dfsg-1*
G04 #@! TF.CreationDate,2023-02-12T19:45:13+01:00*
G04 #@! TF.ProjectId,RBCX,52424358-2e6b-4696-9361-645f70636258,rev?*
G04 #@! TF.SameCoordinates,Original*
G04 #@! TF.FileFunction,Soldermask,Bot*
G04 #@! TF.FilePolarity,Negative*
%FSLAX46Y46*%
G04 Gerber Fmt 4.6, Leading zero omitted, Abs format (unit mm)*
G04 Created by KiCad (PCBNEW 6.0.2+dfsg-1) date 2023-02-12 19:45:13*
%MOMM*%
%LPD*%
G01*
G04 APERTURE LIST*
G04 Aperture macros list*
%AMRoundRect*
0 Rectangle with rounded corners*
0 $1 Rounding radius*
0 $2 $3 $4 $5 $6 $7 $8 $9 X,Y pos of 4 corners*
0 Add a 4 corners polygon primitive as box body*
4,1,4,$2,$3,$4,$5,$6,$7,$8,$9,$2,$3,0*
0 Add four circle primitives for the rounded corners*
1,1,$1+$1,$2,$3*
1,1,$1+$1,$4,$5*
1,1,$1+$1,$6,$7*
1,1,$1+$1,$8,$9*
0 Add four rect primitives between the rounded corners*
20,1,$1+$1,$2,$3,$4,$5,0*
20,1,$1+$1,$4,$5,$6,$7,0*
20,1,$1+$1,$6,$7,$8,$9,0*
20,1,$1+$1,$8,$9,$2,$3,0*%
G04 Aperture macros list end*
%ADD10C,1.240800*%
%ADD11C,1.864800*%
%ADD12R,1.700000X1.700000*%
%ADD13O,0.850000X1.500000*%
%ADD14C,1.552800*%
%ADD15RoundRect,0.218750X0.218750X0.256250X-0.218750X0.256250X-0.218750X-0.256250X0.218750X-0.256250X0*%
%ADD16O,1.700000X1.700000*%
%ADD17C,1.981200*%
%ADD18RoundRect,0.250000X-0.700000X1.825000X-0.700000X-1.825000X0.700000X-1.825000X0.700000X1.825000X0*%
%ADD19RoundRect,0.218750X0.256250X-0.218750X0.256250X0.218750X-0.256250X0.218750X-0.256250X-0.218750X0*%
%ADD20RoundRect,0.100000X0.130000X0.100000X-0.130000X0.100000X-0.130000X-0.100000X0.130000X-0.100000X0*%
%ADD21RoundRect,0.227400X-0.300000X0.425000X-0.300000X-0.425000X0.300000X-0.425000X0.300000X0.425000X0*%
%ADD22RoundRect,0.227400X0.300000X-0.425000X0.300000X0.425000X-0.300000X0.425000X-0.300000X-0.425000X0*%
%ADD23RoundRect,0.152400X0.750000X-0.300000X0.750000X0.300000X-0.750000X0.300000X-0.750000X-0.300000X0*%
%ADD24RoundRect,0.152400X-0.750000X0.300000X-0.750000X-0.300000X0.750000X-0.300000X0.750000X0.300000X0*%
%ADD25RoundRect,0.152400X0.750000X-0.400000X0.750000X0.400000X-0.750000X0.400000X-0.750000X-0.400000X0*%
%ADD26RoundRect,0.152400X-0.750000X0.400000X-0.750000X-0.400000X0.750000X-0.400000X0.750000X0.400000X0*%
%ADD27RoundRect,0.218750X-0.256250X0.218750X-0.256250X-0.218750X0.256250X-0.218750X0.256250X0.218750X0*%
%ADD28C,2.167128*%
%ADD29RoundRect,0.100000X0.100000X-0.130000X0.100000X0.130000X-0.100000X0.130000X-0.100000X-0.130000X0*%
%ADD30RoundRect,0.142857X1.957143X-1.357143X1.957143X1.357143X-1.957143X1.357143X-1.957143X-1.357143X0*%
%ADD31RoundRect,0.100000X-0.130000X-0.100000X0.130000X-0.100000X0.130000X0.100000X-0.130000X0.100000X0*%
%ADD32C,1.889760*%
%ADD33RoundRect,0.250000X0.700000X-1.825000X0.700000X1.825000X-0.700000X1.825000X-0.700000X-1.825000X0*%
G04 APERTURE END LIST*
D10*
G04 #@! TO.C,TP8*
X172685000Y-59785000D03*
G04 #@! TD*
G04 #@! TO.C,TP21*
X153000000Y-73000000D03*
G04 #@! TD*
G04 #@! TO.C,TP39*
X163870000Y-50570000D03*
G04 #@! TD*
G04 #@! TO.C,TP29*
X158715000Y-87465000D03*
G04 #@! TD*
G04 #@! TO.C,TP33*
X175195000Y-123135000D03*
G04 #@! TD*
G04 #@! TO.C,TP32*
X175195000Y-121135000D03*
G04 #@! TD*
G04 #@! TO.C,PWM2B*
X156806250Y-78163525D03*
G04 #@! TD*
G04 #@! TO.C,TP44*
X118600000Y-54550000D03*
G04 #@! TD*
G04 #@! TO.C,IN4_A*
X183795000Y-107755000D03*
G04 #@! TD*
G04 #@! TO.C,IN4A*
X175300000Y-112260000D03*
G04 #@! TD*
D11*
G04 #@! TO.C,IM2*
X137755000Y-105155000D03*
X135215000Y-105155000D03*
X132675000Y-105155000D03*
X130135000Y-105155000D03*
G04 #@! TD*
D10*
G04 #@! TO.C,TP40*
X165715000Y-50565000D03*
G04 #@! TD*
G04 #@! TO.C,TP24*
X169900000Y-131890000D03*
G04 #@! TD*
G04 #@! TO.C,PWM3A*
X179695000Y-107755000D03*
G04 #@! TD*
G04 #@! TO.C,TP56*
X183500000Y-102500000D03*
G04 #@! TD*
G04 #@! TO.C,IN4_B*
X185795000Y-107755000D03*
G04 #@! TD*
G04 #@! TO.C,TP38*
X154600000Y-54550000D03*
G04 #@! TD*
G04 #@! TO.C,TP41*
X142600000Y-54550000D03*
G04 #@! TD*
G04 #@! TO.C,TP58*
X150600000Y-84200000D03*
G04 #@! TD*
G04 #@! TO.C,TP34*
X172000000Y-121145000D03*
G04 #@! TD*
G04 #@! TO.C,TP50*
X104400000Y-137500000D03*
G04 #@! TD*
G04 #@! TO.C,TP55*
X185500000Y-104500000D03*
G04 #@! TD*
G04 #@! TO.C,TP1*
X191200000Y-107700000D03*
G04 #@! TD*
G04 #@! TO.C,TP9*
X114350000Y-50815000D03*
G04 #@! TD*
G04 #@! TO.C,PWM3B*
X181795000Y-107755000D03*
G04 #@! TD*
G04 #@! TO.C,TP51*
X154000000Y-112000000D03*
G04 #@! TD*
G04 #@! TO.C,TP49*
X142600000Y-50600000D03*
G04 #@! TD*
G04 #@! TO.C,MI3*
X179990000Y-111620000D03*
G04 #@! TD*
D12*
G04 #@! TO.C,J29*
X109180000Y-127455000D03*
G04 #@! TD*
D10*
G04 #@! TO.C,TP53*
X158715000Y-83880000D03*
G04 #@! TD*
D13*
G04 #@! TO.C,U21*
X172730000Y-95130000D03*
X168430000Y-99930000D03*
X172730000Y-99930000D03*
X168430000Y-95130000D03*
G04 #@! TD*
D10*
G04 #@! TO.C,TP13*
X179330000Y-61200000D03*
G04 #@! TD*
G04 #@! TO.C,TP12*
X130615000Y-90265000D03*
G04 #@! TD*
G04 #@! TO.C,TP52*
X169900000Y-129890000D03*
G04 #@! TD*
G04 #@! TO.C,PWM1A*
X158711250Y-80068525D03*
G04 #@! TD*
G04 #@! TO.C,TP28*
X175300000Y-114260000D03*
G04 #@! TD*
G04 #@! TO.C,TP47*
X130600000Y-54550000D03*
G04 #@! TD*
G04 #@! TO.C,TP35*
X172000000Y-123200000D03*
G04 #@! TD*
G04 #@! TO.C,MI2*
X160616250Y-78163525D03*
G04 #@! TD*
G04 #@! TO.C,PWM1B*
X156805000Y-80070000D03*
G04 #@! TD*
G04 #@! TO.C,MI1*
X160616250Y-80068525D03*
G04 #@! TD*
D14*
G04 #@! TO.C,TP5*
X190600000Y-55615000D03*
G04 #@! TD*
D10*
G04 #@! TO.C,PWM2A*
X158711250Y-78163525D03*
G04 #@! TD*
G04 #@! TO.C,TP37*
X195000000Y-113890000D03*
G04 #@! TD*
D11*
G04 #@! TO.C,IM1*
X126018250Y-91620000D03*
X126018250Y-89080000D03*
X126018250Y-86540000D03*
X126018250Y-84000000D03*
G04 #@! TD*
D10*
G04 #@! TO.C,TP11*
X153670000Y-101055000D03*
G04 #@! TD*
G04 #@! TO.C,TP7*
X154000000Y-114000000D03*
G04 #@! TD*
G04 #@! TO.C,TP6*
X171000000Y-65900000D03*
G04 #@! TD*
G04 #@! TO.C,TP19*
X147000000Y-73000000D03*
G04 #@! TD*
D12*
G04 #@! TO.C,J36*
X181880000Y-118175000D03*
G04 #@! TD*
D10*
G04 #@! TO.C,TP42*
X151870000Y-50600000D03*
G04 #@! TD*
D12*
G04 #@! TO.C,J35*
X181915000Y-72560000D03*
G04 #@! TD*
D10*
G04 #@! TO.C,TP54*
X185500000Y-102500000D03*
G04 #@! TD*
G04 #@! TO.C,TP43*
X154600000Y-50600000D03*
G04 #@! TD*
G04 #@! TO.C,TP59*
X177760000Y-59790000D03*
G04 #@! TD*
G04 #@! TO.C,TP4*
X143905000Y-65835000D03*
G04 #@! TD*
G04 #@! TO.C,TP18*
X144000000Y-73000000D03*
G04 #@! TD*
G04 #@! TO.C,TP46*
X130600000Y-50600000D03*
G04 #@! TD*
G04 #@! TO.C,TP20*
X150000000Y-73000000D03*
G04 #@! TD*
G04 #@! TO.C,TP45*
X127870000Y-50600000D03*
G04 #@! TD*
G04 #@! TO.C,TP48*
X139870000Y-50600000D03*
G04 #@! TD*
G04 #@! TO.C,TP10*
X106400000Y-99900000D03*
G04 #@! TD*
G04 #@! TO.C,TP2*
X155805000Y-61000000D03*
G04 #@! TD*
D15*
G04 #@! TO.C,D48*
X179337500Y-58250000D03*
X177762500Y-58250000D03*
G04 #@! TD*
D12*
G04 #@! TO.C,J22*
X131245000Y-145165000D03*
D16*
X133785000Y-145165000D03*
X136325000Y-145165000D03*
X138865000Y-145165000D03*
G04 #@! TD*
D17*
G04 #@! TO.C,JP11*
X193630000Y-136360000D03*
X193630000Y-134360000D03*
X193630000Y-132360000D03*
G04 #@! TD*
D18*
G04 #@! TO.C,C49*
X125000000Y-52320000D03*
X125000000Y-59270000D03*
G04 #@! TD*
D12*
G04 #@! TO.C,J12*
X151565000Y-142615000D03*
D16*
X154105000Y-142615000D03*
X156645000Y-142615000D03*
X159185000Y-142615000D03*
X161725000Y-142615000D03*
X164265000Y-142615000D03*
G04 #@! TD*
D19*
G04 #@! TO.C,D44*
X176105000Y-99852000D03*
X176105000Y-98277000D03*
G04 #@! TD*
D12*
G04 #@! TO.C,J4*
X167598200Y-55623200D03*
D16*
X170138200Y-55623200D03*
X167598200Y-53083200D03*
X170138200Y-53083200D03*
X167598200Y-50543200D03*
X170138200Y-50543200D03*
X167598200Y-48003200D03*
X170138200Y-48003200D03*
G04 #@! TD*
D18*
G04 #@! TO.C,C53*
X137000000Y-52325000D03*
X137000000Y-59275000D03*
G04 #@! TD*
D12*
G04 #@! TO.C,J15*
X166900000Y-142615000D03*
D16*
X169440000Y-142615000D03*
X171980000Y-142615000D03*
G04 #@! TD*
D20*
G04 #@! TO.C,R139*
X186227500Y-58250000D03*
X185587500Y-58250000D03*
G04 #@! TD*
D21*
G04 #@! TO.C,SW14*
X108573200Y-90373200D03*
X108573200Y-84373200D03*
X112323200Y-84373200D03*
X112323200Y-90373200D03*
G04 #@! TD*
D12*
G04 #@! TO.C,J33*
X97595000Y-56255000D03*
D16*
X97595000Y-58795000D03*
X100135000Y-56255000D03*
X100135000Y-58795000D03*
X102675000Y-56255000D03*
X102675000Y-58795000D03*
X105215000Y-56255000D03*
X105215000Y-58795000D03*
G04 #@! TD*
D14*
G04 #@! TO.C,IM3*
X104805000Y-108325000D03*
X107345000Y-108325000D03*
X109885000Y-108325000D03*
X112425000Y-108325000D03*
X114965000Y-108325000D03*
X117505000Y-108325000D03*
X120045000Y-108325000D03*
X122585000Y-108325000D03*
X125125000Y-108325000D03*
X127665000Y-108325000D03*
X130205000Y-108325000D03*
X132745000Y-108325000D03*
X135285000Y-108325000D03*
X137825000Y-108325000D03*
X140365000Y-108325000D03*
X142905000Y-108325000D03*
X145445000Y-108325000D03*
X147985000Y-108325000D03*
X150525000Y-108325000D03*
X150525000Y-133725000D03*
X147985000Y-133725000D03*
X145445000Y-133725000D03*
X142905000Y-133725000D03*
X140365000Y-133725000D03*
X137825000Y-133725000D03*
X135285000Y-133725000D03*
X132745000Y-133725000D03*
X130205000Y-133725000D03*
X127665000Y-133725000D03*
X125125000Y-133725000D03*
X122585000Y-133725000D03*
X120045000Y-133725000D03*
X117505000Y-133725000D03*
X114965000Y-133725000D03*
X112425000Y-133725000D03*
X109885000Y-133725000D03*
X107345000Y-133725000D03*
X104805000Y-133725000D03*
G04 #@! TD*
D12*
G04 #@! TO.C,J11*
X141505550Y-137535000D03*
D16*
X144045550Y-137535000D03*
X146585550Y-137535000D03*
G04 #@! TD*
D12*
G04 #@! TO.C,J39*
X126500000Y-48000000D03*
D16*
X123960000Y-48000000D03*
X121420000Y-48000000D03*
G04 #@! TD*
D12*
G04 #@! TO.C,J20*
X166894450Y-145158200D03*
D16*
X169434450Y-145158200D03*
X171974450Y-145158200D03*
G04 #@! TD*
D15*
G04 #@! TO.C,D46*
X184417500Y-58250000D03*
X182842500Y-58250000D03*
G04 #@! TD*
D12*
G04 #@! TO.C,J31*
X97585000Y-61335000D03*
D16*
X97585000Y-63875000D03*
X100125000Y-61335000D03*
X100125000Y-63875000D03*
X102665000Y-61335000D03*
X102665000Y-63875000D03*
X105205000Y-61335000D03*
X105205000Y-63875000D03*
G04 #@! TD*
D12*
G04 #@! TO.C,J24*
X168865000Y-105145000D03*
D16*
X166325000Y-105145000D03*
X163785000Y-105145000D03*
X161245000Y-105145000D03*
X158705000Y-105145000D03*
X156165000Y-105145000D03*
G04 #@! TD*
D12*
G04 #@! TO.C,J30*
X97585000Y-66415000D03*
D16*
X97585000Y-68955000D03*
X100125000Y-66415000D03*
X100125000Y-68955000D03*
X102665000Y-66415000D03*
X102665000Y-68955000D03*
X105205000Y-66415000D03*
X105205000Y-68955000D03*
G04 #@! TD*
D12*
G04 #@! TO.C,J46*
X176965000Y-137535000D03*
D16*
X179505000Y-137535000D03*
X182045000Y-137535000D03*
X184585000Y-137535000D03*
G04 #@! TD*
D12*
G04 #@! TO.C,J50*
X166485000Y-121665000D03*
D16*
X166485000Y-124205000D03*
X166485000Y-126745000D03*
X166485000Y-129285000D03*
G04 #@! TD*
D12*
G04 #@! TO.C,J34*
X142835000Y-105155000D03*
D16*
X145375000Y-105155000D03*
X147915000Y-105155000D03*
X150455000Y-105155000D03*
G04 #@! TD*
D22*
G04 #@! TO.C,SW3*
X102798200Y-90373200D03*
X102798200Y-84373200D03*
X99048200Y-90373200D03*
X99048200Y-84373200D03*
G04 #@! TD*
D12*
G04 #@! TO.C,J21*
X111710000Y-48000000D03*
D16*
X109170000Y-48000000D03*
X106630000Y-48000000D03*
G04 #@! TD*
D20*
G04 #@! TO.C,R63*
X97100000Y-105816000D03*
X96460000Y-105816000D03*
G04 #@! TD*
D12*
G04 #@! TO.C,J10*
X121200000Y-145155000D03*
D16*
X123740000Y-145155000D03*
X126280000Y-145155000D03*
G04 #@! TD*
D17*
G04 #@! TO.C,U5*
X182600000Y-68960000D03*
X184600000Y-68960000D03*
X186600000Y-68960000D03*
X188600000Y-68960000D03*
X190600000Y-68960000D03*
X192600000Y-68960000D03*
G04 #@! TD*
D12*
G04 #@! TO.C,J18*
X151565000Y-145155000D03*
D16*
X154105000Y-145155000D03*
X156645000Y-145155000D03*
X159185000Y-145155000D03*
X161725000Y-145155000D03*
X164265000Y-145155000D03*
G04 #@! TD*
D12*
G04 #@! TO.C,J23*
X141500000Y-145158200D03*
D16*
X144040000Y-145158200D03*
X146580000Y-145158200D03*
G04 #@! TD*
D19*
G04 #@! TO.C,D42*
X174595000Y-99852500D03*
X174595000Y-98277500D03*
G04 #@! TD*
D12*
G04 #@! TO.C,J1*
X120605000Y-98805000D03*
D16*
X123145000Y-98805000D03*
X120605000Y-96265000D03*
X123145000Y-96265000D03*
G04 #@! TD*
D12*
G04 #@! TO.C,J28*
X107275000Y-102615000D03*
D16*
X109815000Y-102615000D03*
X112355000Y-102615000D03*
X114895000Y-102615000D03*
X117435000Y-102615000D03*
X119975000Y-102615000D03*
G04 #@! TD*
D12*
G04 #@! TO.C,J16*
X121200550Y-142615000D03*
D16*
X123740550Y-142615000D03*
X126280550Y-142615000D03*
G04 #@! TD*
D12*
G04 #@! TO.C,J32*
X168865000Y-107695000D03*
D16*
X166325000Y-107695000D03*
G04 #@! TD*
D23*
G04 #@! TO.C,X2*
X99205700Y-108593200D03*
D24*
X102005700Y-108093200D03*
D23*
X99205700Y-107593200D03*
D24*
X102005700Y-107093200D03*
D23*
X99205700Y-106593200D03*
D24*
X102005700Y-106093200D03*
D23*
X99205700Y-105593200D03*
D24*
X102005700Y-105093200D03*
D23*
X99205700Y-104593200D03*
D24*
X102005700Y-104093200D03*
D23*
X99205700Y-103593200D03*
D24*
X102005700Y-103093200D03*
D23*
X99205700Y-102593200D03*
D24*
X102005700Y-102093200D03*
D23*
X99205700Y-101593200D03*
D24*
X102005700Y-101093200D03*
D23*
X99205700Y-100593200D03*
D24*
X102005700Y-100093200D03*
D23*
X99205700Y-99593200D03*
D24*
X102005700Y-99093200D03*
D23*
X99205700Y-98593200D03*
D24*
X102005700Y-98093200D03*
D23*
X99205700Y-97593200D03*
D24*
X102005700Y-97093200D03*
D23*
X99205700Y-96593200D03*
D24*
X102005700Y-96093200D03*
D23*
X99205700Y-95593200D03*
D24*
X102005700Y-95093200D03*
D23*
X99205700Y-94593200D03*
D24*
X102005700Y-94093200D03*
D25*
X99205700Y-109593200D03*
X99205700Y-93093200D03*
D26*
X102005700Y-93093200D03*
X102005700Y-109593200D03*
G04 #@! TD*
D12*
G04 #@! TO.C,J41*
X176965000Y-145165000D03*
D16*
X179505000Y-145165000D03*
X182045000Y-145165000D03*
X184585000Y-145165000D03*
G04 #@! TD*
D27*
G04 #@! TO.C,D39*
X96793942Y-108173852D03*
X96793942Y-109748852D03*
G04 #@! TD*
D20*
G04 #@! TO.C,R182*
X181147500Y-58250000D03*
X180507500Y-58250000D03*
G04 #@! TD*
D17*
G04 #@! TO.C,U9*
X182600000Y-128020000D03*
X184600000Y-128020000D03*
X186600000Y-128020000D03*
X188600000Y-128020000D03*
X190600000Y-128020000D03*
X192600000Y-128020000D03*
G04 #@! TD*
D12*
G04 #@! TO.C,J45*
X176965000Y-140075000D03*
D16*
X179505000Y-140075000D03*
X182045000Y-140075000D03*
X184585000Y-140075000D03*
G04 #@! TD*
D20*
G04 #@! TO.C,R17*
X97100000Y-78740000D03*
X96460000Y-78740000D03*
G04 #@! TD*
D12*
G04 #@! TO.C,J37*
X162500000Y-48000000D03*
D16*
X159960000Y-48000000D03*
X157420000Y-48000000D03*
G04 #@! TD*
D12*
G04 #@! TO.C,J2*
X177758200Y-55623200D03*
D16*
X180298200Y-55623200D03*
X177758200Y-53083200D03*
X180298200Y-53083200D03*
X177758200Y-50543200D03*
X180298200Y-50543200D03*
X177758200Y-48003200D03*
X180298200Y-48003200D03*
G04 #@! TD*
D12*
G04 #@! TO.C,J42*
X97585000Y-71495000D03*
D16*
X97585000Y-74035000D03*
X100125000Y-71495000D03*
X100125000Y-74035000D03*
X102665000Y-71495000D03*
X102665000Y-74035000D03*
X105205000Y-71495000D03*
X105205000Y-74035000D03*
G04 #@! TD*
D22*
G04 #@! TO.C,SW7*
X112323200Y-93898200D03*
X112323200Y-99898200D03*
X108573200Y-99898200D03*
X108573200Y-93898200D03*
G04 #@! TD*
D12*
G04 #@! TO.C,J27*
X163785000Y-107695000D03*
D16*
X161245000Y-107695000D03*
X158705000Y-107695000D03*
X156165000Y-107695000D03*
G04 #@! TD*
D12*
G04 #@! TO.C,J38*
X150500000Y-48000000D03*
D16*
X147960000Y-48000000D03*
X145420000Y-48000000D03*
G04 #@! TD*
D22*
G04 #@! TO.C,SW12*
X102004450Y-137521950D03*
X102004450Y-131521950D03*
X98254450Y-131521950D03*
X98254450Y-137521950D03*
G04 #@! TD*
D27*
G04 #@! TO.C,D33*
X96793942Y-92933852D03*
X96793942Y-94508852D03*
G04 #@! TD*
D12*
G04 #@! TO.C,J5*
X151565000Y-140075000D03*
D16*
X154105000Y-140075000D03*
X156645000Y-140075000D03*
X159185000Y-140075000D03*
X161725000Y-140075000D03*
X164265000Y-140075000D03*
G04 #@! TD*
D15*
G04 #@! TO.C,D30*
X174257500Y-58250000D03*
X172682500Y-58250000D03*
G04 #@! TD*
D12*
G04 #@! TO.C,J3*
X172678200Y-55623200D03*
D16*
X175218200Y-55623200D03*
X172678200Y-53083200D03*
X175218200Y-53083200D03*
X172678200Y-50543200D03*
X175218200Y-50543200D03*
X172678200Y-48003200D03*
X175218200Y-48003200D03*
G04 #@! TD*
D28*
G04 #@! TO.C,X3*
X191600000Y-83640000D03*
X191600000Y-88720000D03*
X191600000Y-93800000D03*
G04 #@! TD*
D29*
G04 #@! TO.C,R174*
X174595000Y-101710000D03*
X174595000Y-101070000D03*
G04 #@! TD*
D20*
G04 #@! TO.C,R67*
X97100000Y-110899000D03*
X96460000Y-110899000D03*
G04 #@! TD*
D30*
G04 #@! TO.C,BAT1*
X146615000Y-121025000D03*
X117615000Y-121025000D03*
G04 #@! TD*
D27*
G04 #@! TO.C,D37*
X96793942Y-103093852D03*
X96793942Y-104668852D03*
G04 #@! TD*
D12*
G04 #@! TO.C,J7*
X110925000Y-145155000D03*
D16*
X113465000Y-145155000D03*
X116005000Y-145155000D03*
X118545000Y-145155000D03*
G04 #@! TD*
D17*
G04 #@! TO.C,U8*
X192600000Y-121660000D03*
X190600000Y-121660000D03*
X188600000Y-121660000D03*
X186600000Y-121660000D03*
X184600000Y-121660000D03*
X182600000Y-121660000D03*
G04 #@! TD*
D18*
G04 #@! TO.C,C41*
X161000000Y-52325000D03*
X161000000Y-59275000D03*
G04 #@! TD*
D31*
G04 #@! TO.C,R15*
X175427500Y-58250000D03*
X176067500Y-58250000D03*
G04 #@! TD*
D12*
G04 #@! TO.C,J47*
X110925000Y-137535000D03*
D16*
X113465000Y-137535000D03*
X116005000Y-137535000D03*
X118545000Y-137535000D03*
G04 #@! TD*
D20*
G04 #@! TO.C,R56*
X97100000Y-95650000D03*
X96460000Y-95650000D03*
G04 #@! TD*
D12*
G04 #@! TO.C,J13*
X110925000Y-142615000D03*
D16*
X113465000Y-142615000D03*
X116005000Y-142615000D03*
X118545000Y-142615000D03*
G04 #@! TD*
D22*
G04 #@! TO.C,SW10*
X121848200Y-74848200D03*
X121848200Y-80848200D03*
X118098200Y-74848200D03*
X118098200Y-80848200D03*
G04 #@! TD*
D18*
G04 #@! TO.C,C45*
X149000000Y-52325000D03*
X149000000Y-59275000D03*
G04 #@! TD*
D19*
G04 #@! TO.C,D32*
X96800000Y-77597500D03*
X96800000Y-76022500D03*
G04 #@! TD*
G04 #@! TO.C,D27*
X96800000Y-82587500D03*
X96800000Y-81012500D03*
G04 #@! TD*
D20*
G04 #@! TO.C,R59*
X97100000Y-100733000D03*
X96460000Y-100733000D03*
G04 #@! TD*
D12*
G04 #@! TO.C,J14*
X141500000Y-140078200D03*
D16*
X144040000Y-140078200D03*
X146580000Y-140078200D03*
G04 #@! TD*
D12*
G04 #@! TO.C,J17*
X131245000Y-142625000D03*
D16*
X133785000Y-142625000D03*
X136325000Y-142625000D03*
X138865000Y-142625000D03*
G04 #@! TD*
D12*
G04 #@! TO.C,J40*
X138500000Y-48000000D03*
D16*
X135960000Y-48000000D03*
X133420000Y-48000000D03*
G04 #@! TD*
D28*
G04 #@! TO.C,X1*
X191604500Y-98880000D03*
X191604500Y-103960000D03*
G04 #@! TD*
D12*
G04 #@! TO.C,J19*
X141500000Y-142618200D03*
D16*
X144040000Y-142618200D03*
X146580000Y-142618200D03*
G04 #@! TD*
D12*
G04 #@! TO.C,J9*
X131245000Y-137535000D03*
D16*
X133785000Y-137535000D03*
X136325000Y-137535000D03*
X138865000Y-137535000D03*
G04 #@! TD*
D22*
G04 #@! TO.C,SW1*
X121848200Y-90373200D03*
X121848200Y-84373200D03*
X118098200Y-84373200D03*
X118098200Y-90373200D03*
G04 #@! TD*
D12*
G04 #@! TO.C,J49*
X166328200Y-93733200D03*
D16*
X166328200Y-96273200D03*
X166328200Y-98813200D03*
X166328200Y-101353200D03*
G04 #@! TD*
D12*
G04 #@! TO.C,J43*
X176965000Y-142615000D03*
D16*
X179505000Y-142615000D03*
X182045000Y-142615000D03*
X184585000Y-142615000D03*
G04 #@! TD*
D32*
G04 #@! TO.C,B1*
X109178200Y-118528200D03*
X109178200Y-123528200D03*
G04 #@! TD*
D33*
G04 #@! TO.C,C74*
X181300000Y-99975000D03*
X181300000Y-93025000D03*
G04 #@! TD*
D12*
G04 #@! TO.C,J8*
X166890000Y-140075000D03*
D16*
X169430000Y-140075000D03*
X171970000Y-140075000D03*
G04 #@! TD*
D12*
G04 #@! TO.C,J25*
X156165000Y-110250000D03*
D16*
X158705000Y-110250000D03*
X161245000Y-110250000D03*
X163785000Y-110250000D03*
X166325000Y-110250000D03*
X168865000Y-110250000D03*
G04 #@! TD*
D17*
G04 #@! TO.C,U4*
X192600000Y-62610000D03*
X190600000Y-62610000D03*
X188600000Y-62610000D03*
X186600000Y-62610000D03*
X184600000Y-62610000D03*
X182600000Y-62610000D03*
G04 #@! TD*
D20*
G04 #@! TO.C,R12*
X97100000Y-83730000D03*
X96460000Y-83730000D03*
G04 #@! TD*
D17*
G04 #@! TO.C,JP10*
X188870000Y-136360000D03*
X188870000Y-134360000D03*
X188870000Y-132360000D03*
G04 #@! TD*
D22*
G04 #@! TO.C,SW5*
X112323200Y-74848200D03*
X112323200Y-80848200D03*
X108573200Y-74848200D03*
X108573200Y-80848200D03*
G04 #@! TD*
D12*
G04 #@! TO.C,J26*
X107275000Y-105155000D03*
D16*
X109815000Y-105155000D03*
X112355000Y-105155000D03*
X114895000Y-105155000D03*
X117435000Y-105155000D03*
X119975000Y-105155000D03*
G04 #@! TD*
D12*
G04 #@! TO.C,J44*
X110925000Y-140075000D03*
D16*
X113465000Y-140075000D03*
X116005000Y-140075000D03*
X118545000Y-140075000D03*
G04 #@! TD*
D29*
G04 #@! TO.C,R157*
X176105000Y-101709500D03*
X176105000Y-101069500D03*
G04 #@! TD*
D27*
G04 #@! TO.C,D35*
X96795700Y-98015700D03*
X96795700Y-99590700D03*
G04 #@! TD*
D12*
G04 #@! TO.C,J48*
X182838200Y-55623200D03*
D16*
X185378200Y-55623200D03*
X182838200Y-53083200D03*
X185378200Y-53083200D03*
X182838200Y-50543200D03*
X185378200Y-50543200D03*
X182838200Y-48003200D03*
X185378200Y-48003200D03*
G04 #@! TD*
D12*
G04 #@! TO.C,J6*
X131245000Y-140075000D03*
D16*
X133785000Y-140075000D03*
X136325000Y-140075000D03*
X138865000Y-140075000D03*
G04 #@! TD*
D33*
G04 #@! TO.C,C58*
X175600000Y-133375000D03*
X175600000Y-126425000D03*
G04 #@! TD*
M02*
